<svg xmlns="http://www.w3.org/2000/svg" xmlns:xlink="http://www.w3.org/1999/xlink" viewBox="-20517.008 -23452 844.154 199">
  <defs>
    <style>
      .cls-1, .cls-11, .cls-19, .cls-22, .cls-3, .cls-33 {
        fill: #fff;
      }

      .cls-2 {
        clip-path: url(#clip-path);
      }

      .cls-11, .cls-12, .cls-14, .cls-15, .cls-18, .cls-19, .cls-21, .cls-25, .cls-3, .cls-31, .cls-32, .cls-4, .cls-9 {
        stroke: #2a3052;
      }

      .cls-3, .cls-4, .cls-9 {
        stroke-width: 2px;
      }

      .cls-4 {
        fill: rgba(0,0,0,0);
      }

      .cls-31, .cls-5, .cls-7, .cls-8 {
        fill: #2a3052;
      }

      .cls-21, .cls-6 {
        fill: #e98024;
      }

      .cls-7 {
        font-size: 3px;
        font-family: MyriadPro-Regular, Myriad Pro;
      }

      .cls-8 {
        fill-rule: evenodd;
      }

      .cls-14, .cls-20, .cls-25, .cls-26, .cls-29, .cls-9 {
        fill: none;
      }

      .cls-11, .cls-12, .cls-14, .cls-15, .cls-16, .cls-17, .cls-18, .cls-19, .cls-20, .cls-21, .cls-22, .cls-23, .cls-25, .cls-27, .cls-29, .cls-30, .cls-31, .cls-33, .cls-9 {
        stroke-miterlimit: 10;
      }

      .cls-10 {
        fill: #640917;
      }

      .cls-11, .cls-12, .cls-14, .cls-15, .cls-16, .cls-17, .cls-18, .cls-19, .cls-20, .cls-21, .cls-22, .cls-23, .cls-25, .cls-27, .cls-29, .cls-30, .cls-31, .cls-32, .cls-33 {
        stroke-width: 1.799px;
      }

      .cls-12, .cls-13, .cls-15, .cls-17, .cls-23 {
        fill: #f2f2f2;
      }

      .cls-15, .cls-19, .cls-20, .cls-21, .cls-22, .cls-23, .cls-25, .cls-27, .cls-29, .cls-30, .cls-31, .cls-32 {
        stroke-linecap: round;
      }

      .cls-16, .cls-18 {
        fill: #ede6e4;
      }

      .cls-16, .cls-17, .cls-20, .cls-22, .cls-23, .cls-27, .cls-30, .cls-33 {
        stroke: #640917;
      }

      .cls-24 {
        fill: #dedede;
      }

      .cls-27 {
        fill: #ffedd9;
      }

      .cls-28 {
        fill: #fcd3b6;
      }

      .cls-29 {
        stroke: #2e2f73;
      }

      .cls-30 {
        fill: #fff3e4;
      }

      .cls-32 {
        fill: #cc4040;
      }

      .cls-34 {
        fill: #f7f0ed;
      }

      .cls-35 {
        stroke: none;
      }
    </style>
    <clipPath id="clip-path">
      <rect id="Rectangle_725" data-name="Rectangle 725" class="cls-1" width="242" height="151" transform="translate(-18769 -22281.865)"/>
    </clipPath>
  </defs>
  <g id="Group_1125" data-name="Group 1125" transform="translate(-21202 -23837.135)">
    <g id="Group_1121" data-name="Group 1121" transform="translate(9)">
      <g id="Group_1119" data-name="Group 1119" transform="translate(19605 22715)">
        <g id="Mask_Group_9" data-name="Mask Group 9" class="cls-2">
          <g id="Group_1101" data-name="Group 1101" transform="translate(-19852.033 -22644)">
            <g id="Group_1100" data-name="Group 1100" transform="translate(1090 371)">
              <g id="Rectangle_690" data-name="Rectangle 690" class="cls-3">
                <rect class="cls-35" width="229.505" height="212"/>
                <rect class="cls-26" x="1" y="1" width="227.505" height="210"/>
              </g>
              <path id="Path_5819" data-name="Path 5819" class="cls-4" d="M0,0H226.9" transform="translate(0.972 63.211)"/>
            </g>
            <rect id="Rectangle_708" data-name="Rectangle 708" class="cls-5" width="16.987" height="11.67" transform="translate(1119.493 398.797)"/>
            <rect id="Rectangle_709" data-name="Rectangle 709" class="cls-5" width="16.987" height="11.67" transform="translate(1146.97 398.797)"/>
            <rect id="Rectangle_710" data-name="Rectangle 710" class="cls-5" width="16.989" height="11.67" transform="translate(1174.446 398.797)"/>
            <rect id="Rectangle_711" data-name="Rectangle 711" class="cls-5" width="16.207" height="11.67" transform="translate(1111.945 461.482)"/>
            <rect id="Rectangle_713" data-name="Rectangle 713" class="cls-5" width="16.207" height="11.67" transform="translate(1111.945 487.739)"/>
            <rect id="Rectangle_716" data-name="Rectangle 716" class="cls-5" width="16.207" height="11.67" transform="translate(1111.945 513.996)"/>
            <rect id="Rectangle_720" data-name="Rectangle 720" class="cls-5" width="16.207" height="11.67" transform="translate(1111.945 540.253)"/>
            <rect id="Rectangle_714" data-name="Rectangle 714" class="cls-6" width="35.009" height="11.67" transform="translate(1221.592 461.482)"/>
            <rect id="Rectangle_712" data-name="Rectangle 712" class="cls-5" width="41.105" height="11.67" transform="translate(1163.954 461.482)"/>
            <rect id="Rectangle_717" data-name="Rectangle 717" class="cls-6" width="34.196" height="11.67" transform="translate(1240.392 487.739)"/>
            <rect id="Rectangle_715" data-name="Rectangle 715" class="cls-5" width="57.637" height="11.67" transform="translate(1163.954 487.739)"/>
            <rect id="Rectangle_718" data-name="Rectangle 718" class="cls-5" width="70.018" height="11.67" transform="translate(1221.592 513.996)"/>
            <rect id="Rectangle_719" data-name="Rectangle 719" class="cls-5" width="40.134" height="11.67" transform="translate(1163.954 513.996)"/>
            <rect id="Rectangle_721" data-name="Rectangle 721" class="cls-6" width="35.009" height="11.67" transform="translate(1256.601 540.253)"/>
            <rect id="Rectangle_722" data-name="Rectangle 722" class="cls-5" width="36.305" height="11.67" transform="translate(1204.091 540.253)"/>
            <rect id="Rectangle_723" data-name="Rectangle 723" class="cls-6" width="23.602" height="11.67" transform="translate(1163.954 540.253)"/>
          </g>
        </g>
        <g id="JavaScript" transform="translate(-18815 -22203)">
          <rect id="Rectangle_707" data-name="Rectangle 707" class="cls-5" width="64" height="64"/>
          <path id="Path_5831" data-name="Path 5831" class="cls-1" d="M192.02,306.847c1.289,2.1,2.966,3.652,5.933,3.652,2.492,0,4.084-1.245,4.084-2.966,0-2.062-1.636-2.793-4.378-3.992l-1.5-.645c-4.34-1.849-7.223-4.165-7.223-9.062,0-4.51,3.437-7.944,8.808-7.944,3.824,0,6.573,1.331,8.554,4.815l-4.683,3.007c-1.031-1.849-2.143-2.577-3.87-2.577a2.617,2.617,0,0,0-2.878,2.577c0,1.8,1.117,2.535,3.7,3.652l1.5.644c5.11,2.191,7.995,4.425,7.995,9.448,0,5.415-4.253,8.381-9.966,8.381-5.585,0-9.194-2.662-10.959-6.15Zm-21.245.521c.945,1.676,1.8,3.093,3.87,3.093,1.976,0,3.222-.773,3.222-3.779v-20.45h6.014v20.531c0,6.227-3.651,9.062-8.98,9.062a9.336,9.336,0,0,1-9.022-5.493Z" transform="translate(-149.029 -256.847)"/>
        </g>
        <g id="react-seeklogo.com" transform="translate(-18751.754 -22322.785)">
          <path id="Path_5832" data-name="Path 5832" class="cls-1" d="M.754,29.452c0,4.833,4.72,9.345,12.16,11.888-1.486,7.48-.266,13.509,3.807,15.859,4.187,2.415,10.425.743,16.345-4.432,5.771,4.966,11.6,6.921,15.674,4.565,4.183-2.422,5.455-8.86,3.928-16.573,7.75-2.562,12.085-6.41,12.085-11.307,0-4.721-4.728-8.806-12.069-11.333,1.644-8.033.251-13.915-3.991-16.362C44.6-.6,38.7,1.455,32.848,6.551,26.756,1.142,20.914-.51,16.676,1.944c-4.086,2.365-5.252,8.5-3.761,16.123C5.725,20.573.754,24.75.754,29.452Z" transform="translate(0 0)"/>
          <path id="Path_5833" data-name="Path 5833" class="cls-5" d="M61.975,30.9q-.884-.3-1.83-.577.155-.633.283-1.248c1.385-6.723.479-12.139-2.613-13.922C54.85,13.448,50,15.231,45.1,19.493q-.706.615-1.415,1.3-.472-.451-.942-.87c-5.133-4.557-10.277-6.478-13.367-4.689-2.962,1.715-3.84,6.807-2.593,13.178q.181.923.42,1.883c-.728.207-1.431.427-2.1.661-6.018,2.1-9.861,5.386-9.861,8.8,0,3.522,4.126,7.056,10.393,9.2q.742.254,1.537.481-.258,1.037-.446,2.029c-1.189,6.261-.26,11.232,2.694,12.936,3.052,1.76,8.173-.049,13.16-4.408q.591-.517,1.186-1.093.77.742,1.537,1.4c4.83,4.157,9.6,5.835,12.553,4.127,3.049-1.765,4.039-7.105,2.753-13.6q-.147-.744-.341-1.519.539-.159,1.057-.33c6.516-2.159,10.755-5.649,10.755-9.218,0-3.423-3.967-6.733-10.106-8.846Z" transform="translate(-10.844 -10.276)"/>
          <path id="Path_5834" data-name="Path 5834" class="cls-1" d="M67.786,53.873q-.466.154-.955.3a56.953,56.953,0,0,0-2.878-7.2,56.938,56.938,0,0,0,2.766-7.1q.872.252,1.69.533c5.26,1.811,8.468,4.488,8.468,6.55,0,2.2-3.465,5.05-9.091,6.914ZM65.452,58.5a20.561,20.561,0,0,1,.273,7.5c-.339,1.825-1.019,3.041-1.861,3.529-1.791,1.037-5.622-.311-9.753-3.866q-.71-.611-1.429-1.3a57.043,57.043,0,0,0,4.764-6.049,56.674,56.674,0,0,0,7.7-1.187q.174.7.308,1.375ZM41.845,69.349c-1.75.618-3.144.636-3.986.15-1.793-1.034-2.538-5.026-1.522-10.38q.175-.92.415-1.887a57.1,57.1,0,0,0,7.66,1.109,59.108,59.108,0,0,0,4.879,6.028q-.544.525-1.083,1a20.564,20.564,0,0,1-6.363,3.983Zm-8.2-15.49a20.564,20.564,0,0,1-6.629-3.522c-1.41-1.207-2.121-2.406-2.121-3.378,0-2.07,3.086-4.709,8.232-6.5.624-.218,1.278-.423,1.956-.616a58.2,58.2,0,0,0,2.77,7.178,59.154,59.154,0,0,0-2.8,7.28q-.725-.209-1.4-.439Zm2.748-18.707c-1.068-5.459-.359-9.577,1.426-10.61,1.9-1.1,6.106.469,10.538,4.4q.425.377.853.787a58.166,58.166,0,0,0-4.842,5.992A59.344,59.344,0,0,0,36.785,36.9q-.222-.892-.391-1.751Zm24.517,6.054q-.844-1.457-1.728-2.842c1.813.229,3.551.534,5.183.906a51.863,51.863,0,0,1-1.819,4.894q-.773-1.468-1.635-2.958Zm-10-9.738a51.9,51.9,0,0,1,3.345,4.038q-1.667-.079-3.372-.08-1.686,0-3.346.078c1.1-1.456,2.236-2.809,3.373-4.036ZM40.851,41.223q-.843,1.461-1.6,2.939c-.707-1.677-1.312-3.326-1.806-4.918,1.622-.363,3.351-.66,5.153-.885q-.9,1.4-1.742,2.863Zm1.794,14.51a51.682,51.682,0,0,1-5.238-.842c.5-1.621,1.12-3.3,1.842-5.018q.763,1.474,1.611,2.941h0q.864,1.492,1.785,2.919Zm8.335,6.889c-1.151-1.242-2.3-2.615-3.42-4.093q1.632.064,3.325.065,1.738,0,3.431-.076a51.648,51.648,0,0,1-3.337,4.1ZM62.57,49.785a51.509,51.509,0,0,1,1.909,5,51.59,51.59,0,0,1-5.3.9q.885-1.4,1.745-2.892.868-1.506,1.649-3.012Zm-3.752,1.8c-.888,1.541-1.8,3.011-2.727,4.4-1.687.121-3.429.183-5.205.183S47.4,56.111,45.74,56c-.963-1.406-1.9-2.881-2.778-4.406h0c-.88-1.521-1.691-3.054-2.425-4.579.734-1.529,1.542-3.064,2.418-4.582h0c.878-1.522,1.8-2.99,2.756-4.387,1.69-.128,3.424-.194,5.175-.194h0c1.76,0,3.5.067,5.185.2.94,1.387,1.857,2.85,2.739,4.373.891,1.539,1.71,3.065,2.45,4.56-.738,1.521-1.555,3.062-2.442,4.6Zm5.009-27.114c1.9,1.1,2.643,5.524,1.448,11.329q-.114.556-.255,1.13a58.165,58.165,0,0,0-7.6-1.2,57.038,57.038,0,0,0-4.8-6q.655-.63,1.307-1.2c4.2-3.652,8.118-5.094,9.9-4.063Z" transform="translate(-18.069 -17.484)"/>
          <path id="Path_5835" data-name="Path 5835" class="cls-5" d="M113.119,94.665a5.075,5.075,0,1,1-5.075,5.075,5.075,5.075,0,0,1,5.075-5.075" transform="translate(-80.302 -70.266)"/>
        </g>
        <g id="Group_1099" data-name="Group 1099" transform="translate(-18571 -22229)">
          <path id="Path_5836" data-name="Path 5836" class="cls-3" d="M0,10.568,30.209,0,60.583,10.568l-4.8,39.347L30.3,64,4.746,49.914Z"/>
          <path id="Path_5837" data-name="Path 5837" class="cls-5" d="M238.8,25.9V83.129l22.679-12.542,4.3-35.3Z" transform="translate(-208.578 -22.622)"/>
          <path id="Path_5838" data-name="Path 5838" class="cls-5" d="M52.495,25.9V83.129L29.8,70.587l-4.3-35.3Z" transform="translate(-22.273 -22.622)"/>
          <path id="Path_5839" data-name="Path 5839" class="cls-1" d="M110.666,49h0L92.1,90.232h6.821l3.911-9.3h15.655l3.911,9.3h6.821ZM105.2,75.337l5.48-13.01,5.48,13.01C107.489,75.362,109.894,75.362,105.2,75.337Z" transform="translate(-80.444 -42.799)"/>
        </g>
        <path id="Path_5841" data-name="Path 5841" class="cls-5" d="M45.489,22.2H0L4.233,68.422l18.511,5.249h0L41.2,68.422Z" transform="translate(-18494 -22214.672)"/>
        <path id="Path_5843" data-name="Path 5843" class="cls-1" d="M42.407,38.9H19.38L17.8,56.226v-.113H37.384l-.677,7.337L30.5,65.256l-6.321-1.862-.4-4.4H18.026l.847,8.861L30.5,71.126l11.626-3.273L43.7,50.47H22.992l.282-5.813H37.666l.169,3.33h5.813Z" transform="translate(-18501.754 -22221.945)"/>
        <g id="Group_1103" data-name="Group 1103" transform="translate(-18479.721 -22205)">
          <path id="Path_5845" data-name="Path 5845" class="cls-5" d="M29.307,5.7H25.3V8.635h6.942V0H29.307Z" transform="translate(-25.3)"/>
          <path id="Path_5846" data-name="Path 5846" class="cls-5" d="M49.855.1H42.8V3.148c.959.959,1.411,1.411,2.822,2.765H42.8V8.678h7.055V5.913L47.033,3.148h2.822Z" transform="translate(-32.923 -0.044)"/>
        </g>
        <g id="Group_1105" data-name="Group 1105" transform="translate(-18667.248 -22326)">
          <path id="Path_5847" data-name="Path 5847" class="cls-5" d="M64.236,17.686a.738.738,0,0,0-1.075-.677,5.112,5.112,0,0,1-2.924,1.075c-1.376-.14-.946-3.2-.946-3.2s.3-2.806-.516-3.043-1.806.731-1.806.731a10.035,10.035,0,0,0-1.828,3.118l-.161.054a21.973,21.973,0,0,0-.022-3.763c-.161-.344-1.634-.323-1.882.3A37.746,37.746,0,0,0,51.57,19a11.273,11.273,0,0,1-4.322,2.279c-2.011.323-2.494-.946-2.494-.946s5.483-1.527,5.29-5.913-4.419-2.763-4.9-2.4A8.512,8.512,0,0,0,41.485,18c-.022.14-.065.753-.065.753a19.745,19.745,0,0,1-3.311,1.806s3.311-5.569-.731-8.1c-1.828-1.1-3.279,1.2-3.279,1.2s5.462-6.075,4.247-11.2C37.765.022,36.551-.247,35.422.151a5.132,5.132,0,0,0-2.344,1.666,18.762,18.762,0,0,0-2.709,7.956C29.863,14.526,29.1,20.288,29.1,20.288a4.027,4.027,0,0,1-2.021,1.075c-.968.054-.538-2.881-.538-2.881s.753-4.462.7-5.214-.108-1.161-.989-1.419-1.849.86-1.849.86-2.559,3.871-2.774,4.462l-.129.237-.129-.161s1.806-5.268.086-5.354-2.849,1.882-2.849,1.882-1.957,3.279-2.043,3.655l-.129-.161A26.357,26.357,0,0,0,17.08,12.5a.863.863,0,0,0-1.054-.753s-1.129-.129-1.419.591A52.925,52.925,0,0,0,13.1,19.417s-2.817,2.021-4.677,2.043-1.666-1.172-1.666-1.172,6.795-2.333,4.946-6.924a3.369,3.369,0,0,0-3.172-1.527C7.167,11.87,5.5,12.7,4.4,15.171a10.726,10.726,0,0,0-.785,3.15h0a2.634,2.634,0,0,1-1.871-.29c-.645-.538-1,0-1,0S-.37,19.417.737,19.848a13.634,13.634,0,0,0,2.817.613h0a5.2,5.2,0,0,0,1.957,3.075c2.021,1.527,5.881-.129,5.881-.129l1.58-.882s.054,1.462,1.2,1.666,1.634,0,3.655-4.892c1.183-2.505,1.258-2.365,1.258-2.365l.129-.022s-.914,4.784-.559,6.075,1.882,1.15,1.882,1.15.839.14,1.505-2.226A34.813,34.813,0,0,1,24,16.923h.161s-.559,4.913.3,6.472,3.1.538,3.1.538a16.822,16.822,0,0,0,1.806-1.021A6.311,6.311,0,0,0,33.83,24.2c5.838-1.15,7.913-2.7,7.913-2.7a4.813,4.813,0,0,0,4.107,2.774,6.813,6.813,0,0,0,5.483-1.968,2.166,2.166,0,0,0,1.2,1.957c1.226.505,2.064-2.376,2.064-2.376l2.064-5.731h.194s.108,3.731,2.15,4.322,4.709-1.376,4.709-1.376A1.38,1.38,0,0,0,64.236,17.686Zm-57.821.527c.086-3.2,2.172-4.6,2.9-3.892s.452,2.2-.914,3.139S6.414,18.213,6.414,18.213ZM33.7,5.817S35.615.85,36.067,3.258s-4,9.623-4,9.623A53.512,53.512,0,0,1,33.7,5.817Zm2.279,13.848a3.144,3.144,0,0,1-4.322,1.957s-.344-1.183.645-4.494,3.333-2.021,3.333-2.021S37.249,16.353,35.981,19.665Zm8.472-1.451s-.3-1.054.806-3.064,1.957-.914,1.957-.914a2,2,0,0,1-.129,2.559A3.135,3.135,0,0,1,44.453,18.213Z" transform="translate(0 0)"/>
          <text id="_" data-name="®" class="cls-7" transform="translate(54.57 24.433)"><tspan x="0" y="0">®</tspan></text>
        </g>
        <g id="python-logo-inkscape" transform="translate(-18880.592 -22336.262)">
          <path id="path1948" class="cls-5" d="M36.865,6.4a43.6,43.6,0,0,0-7.3.623c-6.461,1.141-7.634,3.531-7.634,7.937v5.819H37.2v1.94h-21a9.533,9.533,0,0,0-9.538,7.741,28.539,28.539,0,0,0,0,15.518c1.085,4.52,3.677,7.741,8.115,7.741h5.25V46.74a9.7,9.7,0,0,1,9.538-9.485H44.819A7.692,7.692,0,0,0,52.454,29.5V14.957c0-4.138-3.491-7.246-7.634-7.937A47.623,47.623,0,0,0,36.865,6.4Zm-8.257,4.68A2.91,2.91,0,1,1,25.743,14,2.9,2.9,0,0,1,28.608,11.078Z" transform="translate(0)"/>
          <path id="path1950" class="cls-5" d="M66.715,35.054v6.78a9.793,9.793,0,0,1-9.538,9.681H41.926a7.789,7.789,0,0,0-7.634,7.759V73.812c0,4.138,3.6,6.572,7.634,7.759a25.545,25.545,0,0,0,15.251,0c3.844-1.113,7.634-3.353,7.634-7.759V67.993H49.56v-1.94H72.445c4.437,0,6.091-3.1,7.634-7.741,1.594-4.783,1.526-9.382,0-15.518-1.1-4.417-3.191-7.741-7.634-7.741ZM58.137,71.873a2.91,2.91,0,1,1-2.865,2.9A2.882,2.882,0,0,1,58.137,71.873Z" transform="translate(-12.357 -12.338)"/>
        </g>
        <rect id="Rectangle_724" data-name="Rectangle 724" class="cls-1" width="45" height="69" transform="translate(-18667 -22264)"/>
        <g id="Java_logo" transform="translate(-18668.527 -22265.398)">
          <path id="Path_5850" data-name="Path 5850" class="cls-5" d="M283.307,429.94h-.241V429.8h.649v.135h-.239v.673h-.169Zm1.295.035h0l-.239.638h-.109l-.237-.638h0v.638h-.159v-.808h.234l.22.572.219-.572h.233v.808H284.6v-.638Z" transform="translate(-243.819 -375.072)"/>
          <path id="Path_5851" data-name="Path 5851" class="cls-5" d="M86.956,291.324s-1.678.976,1.194,1.306a25.121,25.121,0,0,0,9.09-.386,15.817,15.817,0,0,0,2.415,1.179c-8.594,3.683-19.449-.213-12.7-2.1" transform="translate(-69.053 -252.976)"/>
          <path id="Path_5852" data-name="Path 5852" class="cls-5" d="M76.2,250.7s-1.882,1.393.992,1.69a35.461,35.461,0,0,0,11.728-.563,5.205,5.205,0,0,0,1.807,1.1c-10.39,3.038-21.963.24-14.527-2.228" transform="translate(-59.346 -217.162)"/>
          <path id="Path_5853" data-name="Path 5853" class="cls-5" d="M154.153,92.2c2.117,2.438-.556,4.632-.556,4.632s5.377-2.776,2.907-6.251c-2.306-3.241-4.075-4.852,5.5-10.4,0,0-15.028,3.753-7.85,12.024" transform="translate(-128.446 -66.812)"/>
          <path id="Path_5854" data-name="Path 5854" class="cls-5" d="M44.15,318.6s1.241,1.023-1.367,1.814c-4.96,1.5-20.645,1.956-25,.06-1.566-.681,1.371-1.627,2.295-1.825a5.958,5.958,0,0,1,1.514-.17c-1.742-1.227-11.259,2.409-4.834,3.451,17.521,2.841,31.94-1.28,27.395-3.33" transform="translate(-7.078 -276.699)"/>
          <path id="Path_5855" data-name="Path 5855" class="cls-5" d="M52.059,208.564s-7.978,1.9-2.825,2.583a59.928,59.928,0,0,0,10.553-.113c3.3-.279,6.617-.871,6.617-.871a14.006,14.006,0,0,0-2.007,1.074c-8.1,2.131-23.753,1.14-19.248-1.04a15.1,15.1,0,0,1,6.909-1.633" transform="translate(-33.349 -180.002)"/>
          <path id="Path_5856" data-name="Path 5856" class="cls-5" d="M229.229,213.457c8.236-4.28,4.428-8.393,1.77-7.838a6.166,6.166,0,0,0-.942.253,1.5,1.5,0,0,1,.7-.543c5.258-1.849,9.3,5.452-1.7,8.344a.717.717,0,0,0,.166-.216" transform="translate(-196.206 -176.895)"/>
          <path id="Path_5857" data-name="Path 5857" class="cls-5" d="M112.879,4.4s4.561,4.563-4.326,11.579c-7.127,5.628-1.625,8.837,0,12.5-4.16-3.753-7.213-7.057-5.165-10.133,3.006-4.514,11.334-6.7,9.494-13.95" transform="translate(-84.822)"/>
          <path id="Path_5858" data-name="Path 5858" class="cls-5" d="M70.092,344.279c7.906.506,20.045-.281,20.333-4.021,0,0-.553,1.418-6.534,2.544a65,65,0,0,1-20.006.308s1.01.836,6.206,1.169" transform="translate(-50.572 -296.12)"/>
          <path id="Path_5859" data-name="Path 5859" class="cls-5" d="M61.771,436.086a3.588,3.588,0,0,1-2.24,1.01,1.429,1.429,0,0,1-1.554-1.575c0-1.05.584-1.817,2.927-1.817h.867v2.382m2.058,2.322V431.22c0-1.836-1.047-3.047-3.572-3.047a9.409,9.409,0,0,0-3.814.828l.3,1.272a8.866,8.866,0,0,1,2.945-.586c1.454,0,2.08.586,2.08,1.8v.908h-.726c-3.534,0-5.128,1.372-5.128,3.431,0,1.777,1.05,2.787,3.028,2.787a4.567,4.567,0,0,0,3.108-1.293l.161,1.091h1.614Z" transform="translate(-43.546 -373.633)"/>
          <path id="Path_5860" data-name="Path 5860" class="cls-5" d="M138.682,439.763h-2.567l-3.089-10.052h2.241l1.917,6.176.426,1.858a38.616,38.616,0,0,0,2-8.034h2.18a40.822,40.822,0,0,1-3.107,10.052" transform="translate(-111.533 -374.989)"/>
          <path id="Path_5861" data-name="Path 5861" class="cls-5" d="M220.408,436.086a3.6,3.6,0,0,1-2.243,1.01,1.429,1.429,0,0,1-1.554-1.575c0-1.05.585-1.817,2.928-1.817h.868v2.382m2.058,2.322V431.22c0-1.836-1.05-3.047-3.572-3.047a9.409,9.409,0,0,0-3.815.828l.3,1.272a8.881,8.881,0,0,1,2.947-.586c1.453,0,2.08.586,2.08,1.8v.908h-.727c-3.535,0-5.128,1.372-5.128,3.431,0,1.777,1.05,2.787,3.027,2.787a4.574,4.574,0,0,0,3.109-1.293l.162,1.091h1.614Z" transform="translate(-183.412 -373.633)"/>
          <path id="Path_5862" data-name="Path 5862" class="cls-5" d="M10.114,414.831a5.407,5.407,0,0,1-2.571,1.917l-1.016-1.2a4.264,4.264,0,0,0,1.781-1.669,6.446,6.446,0,0,0,.385-2.911V399.5h2.186v11.319c0,2.233-.179,3.136-.765,4.015" transform="translate(0 -348.349)"/>
        </g>
        <path id="Path_5863" data-name="Path 5863" class="cls-5" d="M177.271,177.68a1.216,1.216,0,0,1-.606-.162l-1.93-1.142c-.288-.161-.148-.218-.053-.251a3.9,3.9,0,0,0,.872-.4.146.146,0,0,1,.144.01l1.482.88a.2.2,0,0,0,.179,0l5.78-3.336a.182.182,0,0,0,.088-.156v-6.67a.186.186,0,0,0-.089-.159l-5.777-3.333a.178.178,0,0,0-.178,0l-5.776,3.333a.184.184,0,0,0-.092.158v6.67a.178.178,0,0,0,.09.155l1.583.914c.859.43,1.385-.077,1.385-.586v-6.583a.165.165,0,0,1,.168-.166h.732a.165.165,0,0,1,.166.166v6.586a1.6,1.6,0,0,1-1.712,1.8,2.478,2.478,0,0,1-1.332-.362l-1.516-.874a1.222,1.222,0,0,1-.606-1.055v-6.67a1.215,1.215,0,0,1,.606-1.053l5.786-3.338a1.267,1.267,0,0,1,1.215,0l5.778,3.339a1.219,1.219,0,0,1,.606,1.053v6.67a1.223,1.223,0,0,1-.606,1.053l-5.778,3.338a1.215,1.215,0,0,1-.609.162" transform="translate(-18710.639 -22464.482)"/>
        <path id="Path_5864" data-name="Path 5864" class="cls-5" d="M212.9,191.263c-2.529,0-3.059-1.161-3.059-2.135a.166.166,0,0,1,.167-.166h.747a.167.167,0,0,1,.165.141c.113.761.449,1.144,1.978,1.144,1.218,0,1.736-.275,1.736-.921,0-.372-.148-.648-2.04-.833-1.583-.156-2.561-.5-2.561-1.771,0-1.166.984-1.861,2.632-1.861,1.85,0,2.768.642,2.883,2.023a.168.168,0,0,1-.045.129.172.172,0,0,1-.123.054h-.751a.166.166,0,0,1-.162-.13c-.181-.8-.618-1.056-1.806-1.056-1.33,0-1.484.463-1.484.81,0,.421.182.544,1.976.781,1.777.236,2.62.569,2.62,1.817s-1.05,1.981-2.882,1.981m7.04-7.073h.194a.168.168,0,0,0,.19-.177c0-.171-.117-.171-.182-.171h-.2Zm-.236-.547h.43c.148,0,.437,0,.437.33a.287.287,0,0,1-.236.307c.172.012.184.124.207.284a1.22,1.22,0,0,0,.065.33h-.265c-.007-.058-.048-.376-.048-.394-.017-.071-.042-.106-.13-.106h-.218v.5H219.7Zm-.516.622a.934.934,0,1,0,.93-.932.935.935,0,0,0-.93.932m2.049,0a1.114,1.114,0,1,1-1.114-1.114,1.117,1.117,0,0,1,1.114,1.114" transform="translate(-18744.482 -22482.662)"/>
        <path id="Path_5865" data-name="Path 5865" class="cls-8" d="M13.735,13.1a.74.74,0,0,0-.37-.643L7.237,8.932a.716.716,0,0,0-.337-.1H6.837a.728.728,0,0,0-.339.1L.371,12.457A.746.746,0,0,0,0,13.1l.013,9.5a.365.365,0,0,0,.184.32.35.35,0,0,0,.367,0l3.643-2.086a.747.747,0,0,0,.37-.642V15.752a.738.738,0,0,1,.37-.641L6.5,14.218a.736.736,0,0,1,.37-.1.723.723,0,0,1,.368.1l1.55.893a.738.738,0,0,1,.37.641v4.436a.75.75,0,0,0,.371.642l3.641,2.085a.362.362,0,0,0,.37,0,.372.372,0,0,0,.183-.32Zm28.916,4.944a.184.184,0,0,1-.093.16l-2.1,1.213a.186.186,0,0,1-.185,0L38.164,18.2a.183.183,0,0,1-.093-.16v-2.43a.186.186,0,0,1,.091-.161l2.1-1.215a.187.187,0,0,1,.187,0l2.105,1.215a.184.184,0,0,1,.093.161Zm.569-18a.37.37,0,0,0-.551.324v9.4A.259.259,0,0,1,42.28,10l-1.535-.884a.739.739,0,0,0-.74,0l-6.13,3.538a.739.739,0,0,0-.37.639v7.078a.741.741,0,0,0,.37.641l6.13,3.54a.743.743,0,0,0,.74,0l6.13-3.542a.742.742,0,0,0,.37-.641V2.729a.742.742,0,0,0-.38-.647Zm20.413,15.5a.74.74,0,0,0,.368-.64V13.2a.741.741,0,0,0-.368-.64L57.541,9.02a.74.74,0,0,0-.742,0L50.67,12.557a.739.739,0,0,0-.37.641v7.075a.743.743,0,0,0,.373.644l6.089,3.471a.738.738,0,0,0,.726,0l3.683-2.047a.37.37,0,0,0,0-.644l-6.166-3.539a.367.367,0,0,1-.187-.32V15.623a.367.367,0,0,1,.185-.321L56.926,14.2a.366.366,0,0,1,.369,0l1.92,1.107a.369.369,0,0,1,.185.32v1.745a.369.369,0,0,0,.556.32Zm0,0" transform="translate(-18565 -22326)"/>
        <path id="Path_5866" data-name="Path 5866" class="cls-8" d="M387.161,105.086a.14.14,0,0,1,.142,0l1.176.679a.142.142,0,0,1,.071.123v1.358a.142.142,0,0,1-.071.123l-1.176.679a.14.14,0,0,1-.142,0l-1.175-.679a.142.142,0,0,1-.072-.123v-1.358a.14.14,0,0,1,.071-.123Zm0,0" transform="translate(-18895.08 -22415.867)"/>
        <path id="Path_5868" data-name="Path 5868" class="cls-5" d="M200.818,226.023l-6.1,3.518a.736.736,0,0,0-.368.637v7.041a.736.736,0,0,0,.368.637l6.1,3.521a.738.738,0,0,0,.736,0l6.095-3.521a.737.737,0,0,0,.367-.637v-7.041a.736.736,0,0,0-.369-.637l-6.094-3.518a.741.741,0,0,0-.738,0" transform="translate(-18742.564 -22542.969)"/>
        <g id="swift" transform="translate(-18443 -22269)">
          <path id="Path_5873" data-name="Path 5873" class="cls-5" d="M14.508,0H49.944a14.933,14.933,0,0,1,5.023.85A14.194,14.194,0,0,1,64.114,12a17.249,17.249,0,0,1,.175,2.775V49.35a16.2,16.2,0,0,1-.275,3.3,14.22,14.22,0,0,1-9.621,10.7,15.018,15.018,0,0,1-4.473.65c-.675,0-35.511,0-36.036-.025a14.256,14.256,0,0,1-7.2-2.375A14.447,14.447,0,0,1,1.813,56,14.112,14.112,0,0,1,.389,49.775V14.225A13.275,13.275,0,0,1,1.713,8.1,14.194,14.194,0,0,1,6.536,2.475,13.994,13.994,0,0,1,13.709.05,4.166,4.166,0,0,1,14.508,0Z" transform="translate(-0.289)"/>
          <path id="Path_5875" data-name="Path 5875" class="cls-1" d="M55.963,38C77.055,52.35,70.233,68.175,70.233,68.175s6,6.775,3.574,12.7c0,0-2.474-4.15-6.622-4.15-4,0-6.348,4.15-14.394,4.15C34.872,80.875,26.4,65.9,26.4,65.9,42.544,76.525,53.564,69,53.564,69c-7.272-4.225-22.741-24.425-22.741-24.425,13.47,11.475,19.292,14.5,19.292,14.5C46.642,56.2,36.9,42.15,36.9,42.15c7.8,7.9,23.291,18.925,23.291,18.925C64.585,48.875,55.963,38,55.963,38Z" transform="translate(-19.803 -28.5)"/>
        </g>
        <g id="php-logo" transform="translate(-18936.469 -22617.998)">
          <g id="Group_1116" data-name="Group 1116" transform="translate(44.632 445.499)">
            <path id="Path_5881" data-name="Path 5881" class="cls-5" d="M189.159,958.968h8.19q3.606.031,5.226,2.078a6.968,6.968,0,0,1,1.07,5.593,10.735,10.735,0,0,1-.947,3.178,9.446,9.446,0,0,1-1.956,2.812,6.823,6.823,0,0,1-3.27,2.017,15.065,15.065,0,0,1-3.606.428H190.2l-1.161,5.807h-4.248l4.37-21.912h0m3.576,3.484L190.9,971.62a2.232,2.232,0,0,0,.367.031h.428a16.07,16.07,0,0,0,4.89-.581q1.956-.642,2.628-4.462.55-3.209-1.1-3.7a13.7,13.7,0,0,0-4.065-.458q-.367.031-.7.031H192.7l.031-.031" transform="translate(-184.789 -953.131)"/>
            <path id="Path_5882" data-name="Path 5882" class="cls-5" d="M256.112,938.722h4.217l-1.192,5.837h3.79a7.606,7.606,0,0,1,4.645,1.284q1.559,1.222.917,4.645l-2.048,10.177h-4.278l1.956-9.718a2.756,2.756,0,0,0-.183-2.17,2.6,2.6,0,0,0-2.109-.642l-3.392-.031-2.506,12.56h-4.217l4.4-21.943h0" transform="translate(-232.417 -938.722)"/>
            <path id="Path_5883" data-name="Path 5883" class="cls-5" d="M314.825,958.968h8.19q3.606.031,5.226,2.078a6.968,6.968,0,0,1,1.07,5.593,10.735,10.735,0,0,1-.947,3.178,9.446,9.446,0,0,1-1.956,2.812,6.823,6.823,0,0,1-3.27,2.017,15.065,15.065,0,0,1-3.606.428h-3.667L314.7,980.88h-4.248l4.37-21.912h0m3.576,3.484-1.834,9.168a2.232,2.232,0,0,0,.367.031h.428a16.07,16.07,0,0,0,4.89-.581q1.956-.642,2.628-4.462.55-3.209-1.1-3.7a13.7,13.7,0,0,0-4.065-.458q-.367.031-.7.031h-.642l.031-.031" transform="translate(-274.225 -953.131)"/>
          </g>
        </g>
        <g id="Group_1117" data-name="Group 1117">
          <path id="Subtraction_1" data-name="Subtraction 1" class="cls-5" d="M29.455,51.022h0L0,0H11.783L29.456,30.612,47.131,0H58.912L29.456,51.02Z" transform="translate(-18516 -22280)"/>
          <path id="Path_5884" data-name="Path 5884" class="cls-5" d="M-18502.875-22280l16.4,28.779,16.418-28.779h-8.717l-7.7,13.957-8.08-13.957Z"/>
        </g>
        <g id="ruby-ol" transform="translate(-18931.502 -22257.51)">
          <path id="path3400" class="cls-9" d="M165.652,35.924c9.5-9.4,21.728-14.964,26.44-10.224s-.284,16.261-9.781,25.675-21.589,15.284-26.285,10.543S156.155,45.354,165.652,35.924Z" transform="translate(-148.491 -18.86)"/>
          <path id="Path_5885" data-name="Path 5885" class="cls-9" d="M156.806,37.256,147.97,51.481l-.626,19.637s-.532,11.146,13.231,11.618l47.184-3.227,3.524-47.6s1.459-10.65-10.22-12.66L183.233,19l-13.467,6.025Z" transform="translate(-143.84 -15.49)"/>
          <path id="Path_5886" data-name="Path 5886" class="cls-9" d="M3.51,55.049,8.967,46.22l7.894,19.25,6.861-23.652,24.829,9.359L40.993,25.534l23.69-2.679L45.4,8.872,57.229,4.28" transform="translate(-0.006 -0.522)"/>
          <line id="Line_236" data-name="Line 236" class="cls-9" x1="19.753" y1="2.401" transform="translate(46.351 8.457)"/>
          <line id="Line_237" data-name="Line 237" class="cls-9" y1="18.953" x2="2.769" transform="translate(6.415 44.178)"/>
          <path id="Path_5887" data-name="Path 5887" class="cls-9" d="M65.26,85.335,75.793,106.4l29.428,1.765-3.569-27.14L82.141,69.37" transform="translate(-41.828 -44.606)"/>
          <line id="Line_238" data-name="Line 238" class="cls-9" x2="15.39" y2="13.376" transform="translate(48.545 50.655)"/>
          <path id="Path_5888" data-name="Path 5888" class="cls-9" d="M188.4,111.066s17.426-1.091,33.468-18.217c0,0,15.584-16.7,17.178-32.029" transform="translate(-171.648 -43.814)"/>
        </g>
        <g id="c" transform="translate(-18608 -22295.268)">
          <path id="Path_5889" data-name="Path 5889" class="cls-5" d="M56.941,19.084a5.651,5.651,0,0,0-.7-2.843,5.437,5.437,0,0,0-2.06-2.007Q42.813,7.677,31.437,1.129a5.584,5.584,0,0,0-6.052.06C22.368,2.968,7.261,11.624,2.759,14.231A5.258,5.258,0,0,0,0,19.082Q0,32.268,0,45.453a5.676,5.676,0,0,0,.666,2.789A5.418,5.418,0,0,0,2.757,50.3c4.5,2.607,19.611,11.262,22.628,13.042a5.585,5.585,0,0,0,6.053.06q11.368-6.564,22.749-13.1a5.42,5.42,0,0,0,2.091-2.061,5.684,5.684,0,0,0,.666-2.789s0-17.577,0-26.367" transform="translate(0 0)"/>
          <path id="Path_5893" data-name="Path 5893" class="cls-1" d="M198.49,133.55h-2.166v2.167h-2.167V133.55h-2.166v-2.166h2.166v-2.166h2.167v2.166h2.166v2.166m-7.9,0H188.42v2.167h-2.166V133.55h-2.166v-2.166h2.166v-2.166h2.166v2.166h2.166v2.166" transform="translate(-143.073 -100.22)"/>
          <path id="Path_5894" data-name="Path 5894" class="cls-1" d="M70.031,82.546A9.416,9.416,0,1,1,69.97,73.2l8.23-4.739a18.91,18.91,0,1,0,.049,18.842l-8.218-4.761" transform="translate(-33.354 -45.662)"/>
        </g>
        <g id="HTML5_logo" transform="translate(-18886.6 -22277)">
          <path id="Path_5895" data-name="Path 5895" class="cls-5" d="M108.4,0h2.875V2.85h2.65V0H116.8V8.625h-2.875V5.75H111.3V8.625h-2.9m12.2-5.75h-2.537V0h7.963V2.875h-2.55v5.75H120.6M127.287,0H130.3l1.85,3.037L134,0h3.012V8.625h-2.875V4.35l-2.012,3.1-2.013-3.1V8.625h-2.825M138.438,0h2.875V5.775h4.075v2.85h-6.95" transform="translate(-29.575)"/>
          <path id="Path_5896" data-name="Path 5896" class="cls-5" d="M78.725,146.9,74.6,100.6h45.35l-4.125,46.275-18.587,5.15" transform="translate(0 -88.025)"/>
          <path id="Path_5898" data-name="Path 5898" class="cls-1" d="M142,176.3h14.25v5.675h-8.025l.525,5.813h7.5v5.662h-12.7m.25,2.85h5.7l.4,4.538,6.35,1.7v5.925l-11.65-3.25" transform="translate(-58.975 -154.262)"/>
          <path id="Path_5899" data-name="Path 5899" class="cls-1" d="M270.025,176.3H255.8v5.675h13.7m-.513,5.813H255.8v5.675h7l-.662,7.375-6.338,1.7v5.9l11.625-3.225" transform="translate(-158.55 -154.262)"/>
        </g>
      </g>
    </g>
    <g id="Group_1122" data-name="Group 1122" transform="translate(20146 22538.398)">
      <path id="XMLID_170_" class="cls-5" d="M505.656,476.713h0a5.265,5.265,0,0,1-5.256-5.256V466.2h10.513v5.256A5.265,5.265,0,0,1,505.656,476.713Z" transform="translate(-19264.955 -22433.127)"/>
      <path id="XMLID_169_" class="cls-5" d="M551.856,476.713h0a5.265,5.265,0,0,1-5.256-5.256V466.2h10.513v5.256A5.231,5.231,0,0,1,551.856,476.713Z" transform="translate(-19286.377 -22433.127)"/>
      <path id="XMLID_168_" class="cls-10" d="M598.656,476.713h0a5.265,5.265,0,0,1-5.256-5.256V466.2h10.513v5.256A5.3,5.3,0,0,1,598.656,476.713Z" transform="translate(-19308.074 -22433.127)"/>
      <rect id="XMLID_167_" class="cls-11" width="14.053" height="16.198" transform="translate(-18741.492 -22011.928)"/>
      <rect id="XMLID_166_" class="cls-11" width="5.954" height="30.197" transform="translate(-18737.471 -21995.73)"/>
      <path id="XMLID_165_" class="cls-12" d="M526.908,321.986h36.955a9.763,9.763,0,0,0,9.762-9.762V245.341a7.245,7.245,0,0,0-7.241-7.241H524.441a7.245,7.245,0,0,0-7.241,7.241v66.884A9.717,9.717,0,0,0,526.908,321.986Z" transform="translate(-19272.744 -22327.371)"/>
      <rect id="XMLID_164_" class="cls-13" width="14.053" height="5.793" transform="translate(-18727.494 -21999.59) rotate(180)"/>
      <rect id="XMLID_163_" class="cls-13" width="5.954" height="3.111" transform="translate(-18731.518 -21992.229) rotate(180)"/>
      <rect id="XMLID_162_" class="cls-14" width="5.954" height="27.354" transform="translate(-18737.471 -21995.73)"/>
      <rect id="XMLID_161_" class="cls-14" width="14.053" height="16.198" transform="translate(-18741.492 -22011.928)"/>
      <path id="XMLID_160_" class="cls-11" d="M560.838,469.185H496.1a5.654,5.654,0,0,1,5.685-5.685h53.367a5.654,5.654,0,0,1,5.685,5.685Z" transform="translate(-19262.963 -22431.875)"/>
      <path id="XMLID_159_" class="cls-11" d="M557.166,469.185H546.6v-.375a5.322,5.322,0,0,1,5.31-5.31h0a5.322,5.322,0,0,1,5.31,5.31v.375Z" transform="translate(-19286.377 -22431.875)"/>
      <path id="XMLID_158_" class="cls-15" d="M556.4,321.986H517.3V245.341a7.245,7.245,0,0,1,7.241-7.241h33.415a7.245,7.245,0,0,1,7.241,7.241v67.8A8.779,8.779,0,0,1,556.4,321.986Z" transform="translate(-19272.791 -22327.371)"/>
      <rect id="XMLID_157_" class="cls-16" width="47.897" height="7.08" transform="translate(-18707.697 -22018.43) rotate(180)"/>
      <path id="XMLID_156_" class="cls-17" d="M534.9,346.361H524.6V318.9h33.844v3.969A23.532,23.532,0,0,1,534.9,346.361Z" transform="translate(-19276.176 -22364.834)"/>
      <rect id="XMLID_155_" class="cls-18" width="47.897" height="7.08" transform="translate(-18707.697 -22041.168) rotate(180)"/>
      <rect id="XMLID_154_" class="cls-12" width="47.897" height="7.08" transform="translate(-18707.697 -22063.414) rotate(180)"/>
      <path id="XMLID_153_" class="cls-11" d="M482.014,370.1h50.793a6.112,6.112,0,0,1,6.114,6.115h0a6.959,6.959,0,0,1-6.973,6.973H482.014a6.112,6.112,0,0,1-6.114-6.115v-.858A6.112,6.112,0,0,1,482.014,370.1Z" transform="translate(-19253.596 -22388.572)"/>
      <path id="XMLID_152_" class="cls-19" d="M457.752,274.685a4.452,4.452,0,1,1,0-8.9c34.327,0,35.346-30.251,35.4-31.538a4.426,4.426,0,1,1,8.85.161,46.207,46.207,0,0,1-5.739,20.06C491.06,263.69,480.171,274.685,457.752,274.685Z" transform="translate(-19243.117 -22323.568)"/>
      <path id="XMLID_151_" class="cls-20" d="M561.058,235.122v43.606H524.8V235.122a9.935,9.935,0,0,1,9.923-9.923h16.413A9.866,9.866,0,0,1,561.058,235.122Z" transform="translate(-19276.27 -22321.391)"/>
      <path id="XMLID_150_" class="cls-21" d="M561.058,235.122v42.372H524.8V235.122a9.934,9.934,0,0,1,9.923-9.923h16.413A9.866,9.866,0,0,1,561.058,235.122Z" transform="translate(-19276.27 -22321.391)"/>
      <path id="XMLID_149_" class="cls-22" d="M567.8,245.9" transform="translate(-19296.205 -22330.988)"/>
      <path id="XMLID_148_" class="cls-22" d="M530.5,245.9" transform="translate(-19278.91 -22330.988)"/>
      <path id="XMLID_147_" class="cls-23" d="M556.1,245.9v18.4a17.774,17.774,0,0,1-17.753,17.753H518.552A4.441,4.441,0,0,1,514.1,277.6c0-2.467,3.862-4.345,4.452-4.452h19.792a8.859,8.859,0,0,0,8.85-8.85V247.348" transform="translate(-19271.307 -22330.988)"/>
      <path id="XMLID_145_" class="cls-24" d="M572.11,235.4v19.631a17.361,17.361,0,0,1-5.256,12.551,17.546,17.546,0,0,1-12.5,5.149H549.1a17.774,17.774,0,0,0,17.754-17.753V235.347c0-3.754,1.555-5.846-1.234-7.4a1.483,1.483,0,0,1-.536-2.145C570.608,225.854,572.11,229.876,572.11,235.4Z" transform="translate(-19287.535 -22321.668)"/>
      <path id="XMLID_144_" class="cls-25" d="M556.1,245.9v18.4a17.774,17.774,0,0,1-17.753,17.753H518.552A4.441,4.441,0,0,1,514.1,277.6c0-2.467,3.862-4.345,4.452-4.452h19.792a8.859,8.859,0,0,0,8.85-8.85V247.348" transform="translate(-19271.307 -22330.988)"/>
      <path id="XMLID_143_" class="cls-19" d="M507.981,296.8,496.5,299.267a6.548,6.548,0,0,0-5.2,6.436h16.681" transform="translate(-19260.736 -22354.586)"/>
      <line id="XMLID_142_" class="cls-20" y1="11.8" transform="translate(-18751.521 -22070.123)"/>
      <path id="XMLID_141_" class="cls-11" d="M518.692,311.543H493V308.7h22.849a2.9,2.9,0,0,1,2.843,2.843Z" transform="translate(-19261.525 -22360.104)"/>
      <rect id="XMLID_140_" class="cls-12" width="55.459" height="87.909" transform="translate(-18868.072 -22044.324)"/>
      <rect id="XMLID_139_" class="cls-24" width="58.946" height="27.73" transform="translate(-18871.559 -22044.324)"/>
      <rect id="XMLID_138_" class="cls-25" width="55.459" height="87.909" transform="translate(-18868.072 -22044.324)"/>
      <path id="XMLID_137_" class="cls-12" d="M627.153,405.961H568.1V313.6h50.632a8.4,8.4,0,0,1,8.421,8.421Z" transform="translate(-19296.344 -22362.375)"/>
      <path id="XMLID_136_" class="cls-25" d="M582.432,237.383v-2.36a9.935,9.935,0,0,0-9.923-9.923H570.9" transform="translate(-19297.643 -22321.342)"/>
      <rect id="XMLID_135_" class="cls-21" width="24.726" height="9.172" transform="translate(-18751.521 -22046.578)"/>
      <path id="XMLID_134_" class="cls-15" d="M378.623,313.6H300.744a6.535,6.535,0,0,0-6.544,6.544v85.817h7.08V322.825a2.656,2.656,0,0,1,2.682-2.682h74.661" transform="translate(-19169.352 -22362.375)"/>
      <path id="XMLID_133_" class="cls-15" d="M375.9,320.044h98.583a4.3,4.3,0,0,1,4.291,4.291v81.473h6.544V320.044a6.593,6.593,0,0,0-6.544-6.544H375.9" transform="translate(-19207.23 -22362.328)"/>
      <path id="XMLID_132_" class="cls-26" d="M487.4,221.6" transform="translate(-19258.928 -22319.721)"/>
      <path id="XMLID_131_" class="cls-26" d="M421.9,313.6" transform="translate(-19228.559 -22362.375)"/>
      <path id="XMLID_130_" class="cls-11" d="M443.877,281.191H388.149l-6.222-32.182a4.46,4.46,0,0,1,4.4-5.31h46.663a4.481,4.481,0,0,1,4.4,3.594Z" transform="translate(-19209.988 -22329.969)"/>
      <path id="XMLID_129_" class="cls-11" d="M440.03,281.191H384.249l-6.222-32.182a4.46,4.46,0,0,1,4.4-5.31h46.663a4.481,4.481,0,0,1,4.4,3.594Z" transform="translate(-19208.18 -22329.969)"/>
      <path id="XMLID_128_" class="cls-13" d="M444.183,306.923H388.4l-1.5-7.723h55.781Z" transform="translate(-19212.332 -22355.699)"/>
      <circle id="XMLID_127_" class="cls-5" cx="4.344" cy="4.344" r="4.344" transform="translate(-18804.729 -22070.82)"/>
      <path id="XMLID_126_" class="cls-14" d="M440.03,281.191H384.249l-6.222-32.182a4.46,4.46,0,0,1,4.4-5.31h46.663a4.481,4.481,0,0,1,4.4,3.594Z" transform="translate(-19208.18 -22329.969)"/>
      <circle id="XMLID_125_" class="cls-11" cx="1.502" cy="1.502" r="1.502" transform="translate(-18768.148 -22051.779)"/>
      <path id="XMLID_124_" class="cls-12" d="M449.021,415.8c-.7,0-4.774,1.716-5.471,1.5-3.862-1.18-4.076-1.18-2.9-5.042l17.485-58.249a15.64,15.64,0,0,1,15.072-11.21h13.463a7.294,7.294,0,0,1,0,14.589H473.211a1.16,1.16,0,0,0-1.126.8L454.6,416.442C453.634,419.66,452.132,415.8,449.021,415.8Z" transform="translate(-19236.961 -22375.914)"/>
      <line id="XMLID_123_" class="cls-25" x2="2.843" transform="translate(-18762.141 -21961.297)"/>
      <path id="XMLID_122_" class="cls-12" d="M511.576,357.489H498.113a1.16,1.16,0,0,0-1.126.8L479.5,416.542c-.965,3.164-2.414-.751-5.524-.751-.7,0-2.628.912-3.326.7-3.862-1.18-6.222-.322-5.1-4.13l17.485-58.248a15.64,15.64,0,0,1,15.072-11.21h9.011" transform="translate(-19248.668 -22375.961)"/>
      <path id="XMLID_121_" class="cls-27" d="M554.936,214.6v5.578a5.666,5.666,0,0,1-5.632,5.2h-2.682a4.058,4.058,0,0,1-3.647-2.2,3.187,3.187,0,0,1-.375-1.395v-5.364Z" transform="translate(-19284.521 -22316.477)"/>
      <path id="XMLID_119_" class="cls-28" d="M554.89,215.4v5.1a12.747,12.747,0,0,1-6.222,1.555h-2.146a10.881,10.881,0,0,1-3.969-.751H542.5v-3.969h.054Z" transform="translate(-19284.475 -22316.848)"/>
      <path id="XMLID_118_" class="cls-25" d="M554.836,214.6v5.578a5.666,5.666,0,0,1-5.632,5.2h-3.057a3.629,3.629,0,0,1-3.647-3.54v-5.417Z" transform="translate(-19284.475 -22316.477)"/>
      <path id="XMLID_117_" class="cls-19" d="M553.281,167.318v9.118h0a13.162,13.162,0,0,1-13.141,13.141H538a11.01,11.01,0,0,1-11-11V165.441A13.128,13.128,0,0,1,540.141,152.3h0a13.128,13.128,0,0,1,13.141,13.141v2.95" transform="translate(-19277.289 -22287.59)"/>
      <rect id="XMLID_116_" class="cls-13" width="4.988" height="3.915" transform="translate(-18750.234 -22118.77)"/>
      <path id="XMLID_115_" class="cls-13" d="M549.2,187.015h-3.379A1.809,1.809,0,0,1,544,185.192V183.1h6.865v2.253A1.671,1.671,0,0,1,549.2,187.015Z" transform="translate(-19285.172 -22301.871)"/>
      <path id="XMLID_114_" class="cls-19" d="M549.882,190.753h-1.555a1.1,1.1,0,0,1-1.126-1.126h0a1.1,1.1,0,0,1,1.126-1.126h1.555a1.1,1.1,0,0,1,1.126,1.126h0A1.17,1.17,0,0,1,549.882,190.753Z" transform="translate(-19286.652 -22304.375)"/>
      <path id="XMLID_112_" class="cls-13" d="M562.415,172.65v9.118h0a13.162,13.162,0,0,1-13.141,13.141H546.7a13.126,13.126,0,0,0,12.658-13.087h0V170.558a6.788,6.788,0,0,0-6.7-6.758h3a6.764,6.764,0,0,1,6.758,6.758v2.092Z" transform="translate(-19286.422 -22292.922)"/>
      <path id="XMLID_111_" class="cls-25" d="M553.281,167.218v9.118h0a13.162,13.162,0,0,1-13.141,13.141H538a11.01,11.01,0,0,1-11-11V165.341A13.128,13.128,0,0,1,540.141,152.2h0a13.128,13.128,0,0,1,13.141,13.141v2.95" transform="translate(-19277.289 -22287.545)"/>
      <path id="XMLID_110_" class="cls-29" d="M522.2,182.4" transform="translate(-19275.063 -22301.545)"/>
      <path id="XMLID_109_" class="cls-25" d="M538.284,195.336a2.015,2.015,0,0,1-1.984-1.985V188.9" transform="translate(-19281.602 -22304.561)"/>
      <path id="XMLID_108_" class="cls-30" d="M579,193.9" transform="translate(-19301.398 -22306.877)"/>
      <path id="XMLID_105_" class="cls-31" d="M550.154,182.216h-5.1a.847.847,0,0,1-.858-.858h0a.847.847,0,0,1,.858-.858h5.1a.847.847,0,0,1,.858.858h0A.969.969,0,0,1,550.154,182.216Z" transform="translate(-19285.262 -22300.666)"/>
      <path id="XMLID_104_" class="cls-31" d="M538.693,152.154A11.72,11.72,0,0,0,527,163.846h8.582a4.182,4.182,0,0,0,3.862-2.574,2.671,2.671,0,0,1,2.36-1.663h.215a4.784,4.784,0,0,1,4.774,4.774v4.774a5.288,5.288,0,0,0,5.31,5.31h4.183V163.524A11.4,11.4,0,0,0,544.861,152.1h-6.168Z" transform="translate(-19277.289 -22287.498)"/>
      <path id="XMLID_103_" class="cls-25" d="M538.693,152.154A11.72,11.72,0,0,0,527,163.846h8.582a4.182,4.182,0,0,0,3.862-2.574,2.671,2.671,0,0,1,2.36-1.663h.215a4.784,4.784,0,0,1,4.774,4.774v4.774a5.288,5.288,0,0,0,5.31,5.31h4.183V163.524A11.4,11.4,0,0,0,544.861,152.1h-6.168Z" transform="translate(-19277.289 -22287.498)"/>
      <path id="XMLID_102_" class="cls-31" d="M531.13,182.216h-3.272a.847.847,0,0,1-.858-.858h0a.847.847,0,0,1,.858-.858h3.272a.847.847,0,0,1,.858.858h0A.882.882,0,0,1,531.13,182.216Z" transform="translate(-19277.289 -22300.666)"/>
      <path id="XMLID_101_" class="cls-31" d="M566.549,163.624v10.942h-4.183a5.4,5.4,0,0,1-1.341-.161V163.624A11.4,11.4,0,0,0,549.6,152.2h5.525A11.468,11.468,0,0,1,566.549,163.624Z" transform="translate(-19287.766 -22287.545)"/>
      <path id="XMLID_100_" class="cls-15" d="M570.4,191.072a3.286,3.286,0,1,1,1.663,2.843" transform="translate(-19297.41 -22304.049)"/>
      <path id="XMLID_99_" class="cls-15" d="M576.5,191.4a1.328,1.328,0,0,1,1.341,1.341" transform="translate(-19300.238 -22305.719)"/>
      <path id="XMLID_98_" class="cls-20" d="M540.327,206.9a3.1,3.1,0,0,1-2.414,1.18h0a3.1,3.1,0,0,1-2.414-1.18" transform="translate(-19281.23 -22312.906)"/>
      <circle id="XMLID_97_" class="cls-5" cx="0.858" cy="0.858" r="0.858" transform="translate(-18739.293 -22115.498)"/>
      <path id="XMLID_96_" class="cls-19" d="M530.382,190.753h-1.555a1.1,1.1,0,0,1-1.126-1.126h0a1.1,1.1,0,0,1,1.126-1.126h1.555a1.1,1.1,0,0,1,1.126,1.126h0A1.1,1.1,0,0,1,530.382,190.753Z" transform="translate(-19277.613 -22304.375)"/>
      <circle id="XMLID_95_" class="cls-5" cx="0.858" cy="0.858" r="0.858" transform="translate(-18749.645 -22115.498)"/>
      <path id="XMLID_94_" class="cls-21" d="M575.7,236.256v10.3h8.957V233.414a8.287,8.287,0,0,0-8.314-8.314H575.7" transform="translate(-19299.869 -22321.342)"/>
      <path id="XMLID_93_" class="cls-31" d="M552.791,202.3h0a14.741,14.741,0,0,1-14.75,14.75h-1.287A9.683,9.683,0,0,1,527.1,207.4v-5.1" transform="translate(-19277.334 -22310.773)"/>
      <path id="XMLID_92_" class="cls-1" d="M537.647,210.976h0A3.651,3.651,0,0,1,534,207.329V206.9h7.294v.429A3.686,3.686,0,0,1,537.647,210.976Z" transform="translate(-19280.533 -22312.906)"/>
      <path id="XMLID_91_" class="cls-32" d="M0,0H301.809" transform="translate(-18919.563 -21956.414)"/>
      <path id="XMLID_90_" class="cls-18" d="M442.75,477.415H415.557a3.056,3.056,0,0,1-3.057-3.057h0a3.043,3.043,0,0,1,2.253-2.95l13.892-3.808h16.144v7.831A2.063,2.063,0,0,1,442.75,477.415Z" transform="translate(-19224.201 -22433.777)"/>
      <path id="XMLID_89_" class="cls-19" d="M443.941,484.045H414.548A1.442,1.442,0,0,1,413.1,482.6v-.7h32.235v.7A1.366,1.366,0,0,1,443.941,484.045Z" transform="translate(-19224.48 -22440.406)"/>
      <path id="XMLID_88_" class="cls-21" d="M441.7,467.768l3,7.4h2.95l-3.379-7.67Z" transform="translate(-19237.74 -22433.729)"/>
      <path id="XMLID_85_" class="cls-21" d="M451.8,467.5l3,7.67h2.95l-3.379-7.67Z" transform="translate(-19242.422 -22433.729)"/>
      <path id="XMLID_84_" class="cls-33" d="M465.451,477.415H438.257a3.056,3.056,0,0,1-3.057-3.057h0a3.043,3.043,0,0,1,2.253-2.95l13.892-3.808h16.144v7.831A2.063,2.063,0,0,1,465.451,477.415Z" transform="translate(-19234.727 -22433.777)"/>
      <path id="XMLID_83_" class="cls-25" d="M465.451,477.184H438.257a3.056,3.056,0,0,1-3.057-3.057h0a3.042,3.042,0,0,1,2.253-2.95l15.072-4.076,14.964.268V475.2A2.063,2.063,0,0,1,465.451,477.184Z" transform="translate(-19234.727 -22433.545)"/>
      <path id="XMLID_82_" class="cls-19" d="M466.041,484.045H436.648A1.442,1.442,0,0,1,435.2,482.6v-.7h32.235v.7A1.432,1.432,0,0,1,466.041,484.045Z" transform="translate(-19234.727 -22440.406)"/>
      <path id="XMLID_81_" class="cls-22" d="M434.9,473.3" transform="translate(-19234.588 -22436.418)"/>
      <path id="XMLID_80_" class="cls-22" d="M433.9,470.2" transform="translate(-19234.123 -22434.982)"/>
      <path id="XMLID_79_" class="cls-22" d="M437.4,472.6" transform="translate(-19235.744 -22436.094)"/>
      <path id="XMLID_78_" class="cls-22" d="M436.5,469.5" transform="translate(-19235.328 -22434.656)"/>
      <path id="XMLID_77_" class="cls-22" d="M440,472" transform="translate(-19236.953 -22435.818)"/>
      <path id="XMLID_76_" class="cls-22" d="M439,468.9" transform="translate(-19236.488 -22434.381)"/>
      <path id="XMLID_75_" class="cls-21" d="M513.851,284.328H524.9a.733.733,0,0,0,.751-.751v-1.126a.733.733,0,0,0-.751-.751H513.851a.733.733,0,0,0-.751.751v1.126A.733.733,0,0,0,513.851,284.328Z" transform="translate(-19270.844 -22347.586)"/>
      <path id="XMLID_74_" class="cls-22" d="M514.8,286.6l1.019,13.194a.815.815,0,0,0,.8.751h7.026a.815.815,0,0,0,.8-.751l1.073-13.194Z" transform="translate(-19271.631 -22349.855)"/>
      <path id="XMLID_73_" class="cls-21" d="M516.2,279.464h9.172v-.59a1.206,1.206,0,0,0-1.019-1.18l-6.812-.8a1.155,1.155,0,0,0-1.287,1.18v1.395Z" transform="translate(-19272.281 -22345.35)"/>
      <path id="XMLID_72_" class="cls-34" d="M514.8,286.6l1.019,13.194a.815.815,0,0,0,.8.751h1.287l-.965-13.945Z" transform="translate(-19271.631 -22349.855)"/>
      <path id="XMLID_71_" class="cls-25" d="M514.8,286.6l1.019,13.194a.815.815,0,0,0,.8.751h7.026a.815.815,0,0,0,.8-.751l1.073-13.194Z" transform="translate(-19271.631 -22349.855)"/>
      <path id="XMLID_70_" class="cls-24" d="M514.3,290.283l.7,9.279a.415.415,0,0,0,.429.375h2.092l-.751-10.137h-2.038A.508.508,0,0,0,514.3,290.283Z" transform="translate(-19271.398 -22351.342)"/>
      <path id="XMLID_69_" class="cls-13" d="M518.8,289.9l.751,10.137h6.919a.455.455,0,0,0,.429-.375l.7-9.279a.423.423,0,0,0-.429-.429H518.8Z" transform="translate(-19273.488 -22351.389)"/>
      <path id="XMLID_68_" class="cls-14" d="M525.034,289.9H514.629a.423.423,0,0,0-.429.429l.7,9.279a.415.415,0,0,0,.429.375h9.011a.455.455,0,0,0,.429-.375l.7-9.279C525.517,290.115,525.3,289.9,525.034,289.9Z" transform="translate(-19271.354 -22351.389)"/>
      <path id="XMLID_67_" class="cls-21" d="M465.3,467.768l3,7.4h2.9l-3.379-7.67Z" transform="translate(-19248.682 -22433.729)"/>
      <path id="XMLID_66_" class="cls-21" d="M475.3,467.5l3.057,7.67h2.95l-3.433-7.67Z" transform="translate(-19253.318 -22433.729)"/>
      <path id="XMLID_3_" class="cls-24" d="M524.6,353.687h0a6.57,6.57,0,0,1,6.544-6.543h4.827a4.052,4.052,0,0,0,4.023-4.023h0a4.052,4.052,0,0,0-4.023-4.023H524.707v-4.4h23.063v15.447s-1.663,2.628-6.061,3.057C537.258,353.687,524.6,353.687,524.6,353.687Z" transform="translate(-19276.176 -22372.158)"/>
      <path id="XMLID_2_" class="cls-25" d="M536.064,339.2H524.8v-4.4h23.063V351s-1.663,2.306-6.061,2.789H524.854" transform="translate(-19276.27 -22372.207)"/>
    </g>
  </g>
</svg>
