<svg viewBox="0 0 96 96" xmlns="http://www.w3.org/2000/svg" xmlns:xlink="http://www.w3.org/1999/xlink"><title>Artboard</title><defs><path d="M5.526.44c-1.247.023-2.31.458-3.071 1.303-1.158 1.287-1.345 3.23-.638 5.181H.254V9.31h2.76c.217.64.221 1.423-.048 2.056-.356.834-1.06 1.518-2.716 1.518v2.384h9.5v-2.384H4.548c.112-.057.355-.279.45-.531.416-.976.487-2.037.305-3.043h2.505V6.924H4.334c-.95-1.659-.82-2.917-.27-3.527.598-.665 2.079-1.04 4.55.398V1.15C7.517.66 6.47.427 5.527.44z" id="a"/><path d="M6.12.136H4.065v1.806C1.993 2.377.808 3.282.511 4.655.308 6.022.837 7.114 2.098 7.93c.42.279 1.514.708 3.282 1.289 1.276.405 1.87.953 1.783 1.642-.101.817-.851 1.22-2.25 1.207-.927-.018-2.04-.435-3.337-1.252l-1.413 1.46c.275.436.783.814 1.522 1.135.717.32 1.51.535 2.38.644l.022 1.779h2.13l.011-1.788c1.652-.314 2.747-1.028 3.283-2.141.529-1.228.446-2.217-.25-2.967-.71-.757-1.612-1.295-2.707-1.616l-1.663-.48c-.645-.273-1.065-.502-1.26-.69-.783-.805-.645-1.488.412-2.05 1.341-.52 2.79-.276 4.348.734L9.5 3.285c-.688-.78-1.815-1.222-3.38-1.325V.136z" id="b"/><path d="M9.644 12.336l.346 1.663c.02.084.01.162-.03.235a.317.317 0 0 1-.168.152l-.049.01a.457.457 0 0 1-.104.037c-.042.01-.095.026-.158.047a2.1 2.1 0 0 1-.212.058 10.982 10.982 0 0 1-.549.105 9.515 9.515 0 0 1-.33.047 7.016 7.016 0 0 1-.741.042c-1.542 0-2.89-.456-4.042-1.366-1.153-.91-1.937-2.136-2.352-3.678H.316a.296.296 0 0 1-.222-.099A.331.331 0 0 1 0 9.354V8.17c0-.09.031-.169.094-.235a.296.296 0 0 1 .222-.1h.652c-.013-.397-.01-.763.01-1.098H.316a.299.299 0 0 1-.227-.094.336.336 0 0 1-.089-.24V5.21c0-.097.03-.177.089-.24a.299.299 0 0 1 .227-.094h.969C1.726 3.41 2.528 2.232 3.69 1.339A6.328 6.328 0 0 1 7.648 0C8.32 0 8.96.08 9.565.24c.073.022.139.074.198.158.04.076.05.16.03.25l-.425 1.664a.306.306 0 0 1-.139.204.27.27 0 0 1-.237.026l-.04-.01a2.5 2.5 0 0 0-.113-.026l-.173-.037-.222-.036-.257-.032-.287-.026-.291-.01c-.83 0-1.575.223-2.234.67-.658.446-1.152 1.06-1.482 1.84h4.625c.105 0 .188.042.247.126a.32.32 0 0 1 .069.272l-.237 1.193c-.033.181-.139.272-.316.272H3.458c-.02.258-.02.624 0 1.099h4.536c.099 0 .181.041.247.125.06.084.08.178.06.283l-.238 1.171a.325.325 0 0 1-.108.194.292.292 0 0 1-.198.078H3.933c.316.817.808 1.463 1.477 1.941a3.79 3.79 0 0 0 2.258.717c.119 0 .237-.005.356-.016a6.998 6.998 0 0 0 .622-.083 4.18 4.18 0 0 0 .425-.1l.119-.031.05-.021a.281.281 0 0 1 .256.02.32.32 0 0 1 .148.22z" id="c"/><path d="M9.925.17C9.86.058 9.773 0 9.663 0H7.808c-.136 0-.23.068-.282.202L5.671 4.677c-.045.12-.134.337-.267.65-.132.312-.231.554-.296.724-.24-.618-.42-1.062-.544-1.332L2.476.192C2.411.064 2.318 0 2.195 0H.31C.194 0 .104.057.039.17a.394.394 0 0 0 0 .341L3.156 6.67H1.078a.286.286 0 0 0-.219.101.344.344 0 0 0-.092.24v1.108c0 .1.03.18.092.245a.293.293 0 0 0 .219.096h2.797v.905H1.078a.286.286 0 0 0-.219.101.344.344 0 0 0-.092.24v1.097c0 .1.03.182.092.245a.293.293 0 0 0 .219.096h2.797v3.516c0 .1.03.18.092.245a.294.294 0 0 0 .218.096h1.67a.287.287 0 0 0 .22-.102.345.345 0 0 0 .091-.24v-3.515h2.817a.293.293 0 0 0 .218-.096.338.338 0 0 0 .092-.245V9.705a.343.343 0 0 0-.092-.24.286.286 0 0 0-.218-.1H6.166v-.906h2.817a.293.293 0 0 0 .218-.096.338.338 0 0 0 .092-.245V7.01a.343.343 0 0 0-.092-.24.286.286 0 0 0-.218-.1H6.895L9.935.5a.35.35 0 0 0-.01-.33z" id="d"/></defs><g fill="none" fill-rule="evenodd"><text font-family="Roboto-Bold, Roboto" font-size="7" font-weight="bold" fill="#000" transform="translate(10 30)"><tspan x="20" y="34">BANK TRANSFER</tspan></text><path d="M71.655 30.244l13.258 11.492a1 1 0 0 1-.008 1.518L71.647 54.51A1 1 0 0 1 70 53.748V31a1 1 0 0 1 1.655-.756z" fill="#ADE60E"/><path d="M61.697 38.532v-6.773a1 1 0 0 1 1.635-.773l13.192 10.85a1 1 0 0 1-.008 1.551L63.324 54.016a1 1 0 0 1-1.627-.779v-5.951L10 49.13V35.751l51.697 2.78z" fill="#238836"/><g fill-rule="nonzero"><g transform="translate(24 35)"><use fill="#FFF" fill-rule="evenodd" xlink:href="#a"/><path stroke="#2E8836" d="M4.631 6.424h3.677V9.81H5.874a5.7 5.7 0 0 1-.349 2.574h4.725v3.384H-.25v-3.384h.5c1.279 0 1.912-.408 2.256-1.215.169-.396.209-.894.122-1.36H-.246V6.425h1.383c-.508-1.916-.192-3.75.946-5.015.849-.943 2.038-1.443 3.434-1.47h.002c1.03-.013 2.149.242 3.299.754l.297.132v3.84l-.752-.438c-1.96-1.14-3.344-1.145-3.928-.496-.435.483-.434 1.472.196 2.693z"/></g><g transform="translate(12 35)"><use fill="#FFF" fill-rule="evenodd" xlink:href="#b"/><path stroke="#2E8836" d="M6.62 1.503c1.45.165 2.542.643 3.255 1.45l.263.299L8.52 5.516l-.4-.26c-1.433-.929-2.717-1.146-3.842-.713-.773.41-.832.703-.302 1.248.139.133.518.34 1.054.57l1.665.482c1.178.345 2.158.93 2.932 1.755.844.909.945 2.108.334 3.524-.565 1.173-1.657 1.947-3.235 2.328l-.012 1.884H3.593l-.023-1.846a8.602 8.602 0 0 1-2.084-.618c-.824-.358-1.41-.794-1.746-1.326l-.21-.332L1.5 10.176l.343.217c1.227.772 2.258 1.16 3.075 1.175 1.176.01 1.687-.264 1.75-.77.048-.381-.365-.762-1.443-1.104C3.41 9.098 2.294 8.66 1.826 8.35.405 7.43-.216 6.148.022 4.55c.325-1.5 1.534-2.499 3.543-3.006V-.364H6.62v1.867z"/></g><g transform="translate(36 36)"><use fill="#FFF" fill-rule="evenodd" xlink:href="#c"/><path stroke="#238836" d="M10.134 12.235l.343 1.65a.823.823 0 0 1-.077.587c-.093.174-.238.306-.494.4-.046.019-.096.034-.148.047a1.59 1.59 0 0 0-.118.036c-.08.026-.168.05-.264.071a11.48 11.48 0 0 1-.576.11c-.115.019-.231.035-.349.05a7.516 7.516 0 0 1-.803.046c-1.652 0-3.109-.493-4.351-1.474-1.145-.903-1.952-2.097-2.417-3.57H.316a.795.795 0 0 1-.586-.256.831.831 0 0 1-.23-.578V8.17c0-.218.08-.42.23-.578a.795.795 0 0 1 .586-.256h.145v-.099H.316a.798.798 0 0 1-.59-.25.834.834 0 0 1-.226-.585V5.21c0-.22.075-.425.225-.584a.798.798 0 0 1 .591-.25h.606c.49-1.402 1.313-2.55 2.464-3.433A6.828 6.828 0 0 1 7.648-.5c.715 0 1.397.086 2.056.26.191.056.347.179.503.409a.874.874 0 0 1 .07.603l-.42 1.647a.805.805 0 0 1-.363.521.751.751 0 0 1-.63.086l-.04-.01a2.112 2.112 0 0 0-.089-.021l-.15-.032-.202-.034-.242-.03-.259-.024-.273-.01a3.39 3.39 0 0 0-1.953.583 3.45 3.45 0 0 0-.928.928h3.79c.266 0 .501.119.64.316a.818.818 0 0 1 .166.679L9.09 6.555c-.076.416-.386.683-.808.683H3.944v.099h4.05c.256 0 .481.114.655.336a.859.859 0 0 1 .141.67l-.234 1.158a.824.824 0 0 1-.8.687H4.736c.254.412.576.756.966 1.034a3.29 3.29 0 0 0 1.967.624c.104 0 .208-.005.312-.014a6.502 6.502 0 0 0 .573-.077c.083-.015.154-.03.213-.046l.177-.045.052-.009.056-.023a.789.789 0 0 1 .708.058.82.82 0 0 1 .375.545z"/></g><g transform="translate(49 36)"><use fill="#FFF" fill-rule="evenodd" xlink:href="#d"/><path stroke="#238836" d="M5.114 4.726l.095-.24L7.06.022A.78.78 0 0 1 7.808-.5h1.855c.3 0 .547.16.696.423l-.003-.005c.142.242.15.518.027.804L7.699 6.169h1.284c.228 0 .433.095.587.264.147.16.223.36.223.577v1.108a.836.836 0 0 1-.54.794.843.843 0 0 1 .54.793v1.097a.836.836 0 0 1-.232.592.792.792 0 0 1-.578.25H6.666v3.015a.847.847 0 0 1-.223.577.786.786 0 0 1-.587.264h-1.67a.793.793 0 0 1-.579-.25.837.837 0 0 1-.232-.591v-3.016H1.078a.793.793 0 0 1-.579-.249.837.837 0 0 1-.232-.592V9.705a.844.844 0 0 1 .54-.793.837.837 0 0 1-.54-.794V7.01c0-.217.077-.416.223-.577a.785.785 0 0 1 .588-.264h1.265L-.417.719c-.11-.246-.11-.51.021-.796A.798.798 0 0 1 .311-.5h1.884c.32 0 .58.177.735.482l2.09 4.53c.028.063.06.134.094.214z"/></g></g></g></svg>