<svg viewBox="0 0 96 96" xmlns="http://www.w3.org/2000/svg"><title>Artboard</title><defs><linearGradient x1="-.02%" y1="50%" x2="100.02%" y2="50%" id="a"><stop stop-color="#FF8000" offset="0%"/><stop stop-color="#FF8101" offset="27.428%"/><stop stop-color="#FF8507" offset="48.345%"/><stop stop-color="#FD9D2E" offset="74.653%"/><stop stop-color="#FCA73F" offset="85.225%"/><stop stop-color="#FBAF4C" offset="92.313%"/><stop stop-color="#FAB85A" offset="98.127%"/><stop stop-color="#FABE64" offset="100%"/></linearGradient><linearGradient x1="-.048%" y1="50%" x2="100.048%" y2="50%" id="b"><stop stop-color="#FF8000" offset="0%"/><stop stop-color="#FF8101" offset="27.428%"/><stop stop-color="#FF8507" offset="48.345%"/><stop stop-color="#FD9D2E" offset="74.653%"/><stop stop-color="#FCA73F" offset="85.225%"/><stop stop-color="#FBAF4C" offset="92.313%"/><stop stop-color="#FAB85A" offset="98.127%"/><stop stop-color="#FABE64" offset="100%"/></linearGradient></defs><g fill-rule="nonzero" fill="none"><path d="M56.558 11.245L46.592 1.29S45.302 0 43.478 0c0 0-1.823 0-3.114 1.29 0 0-1.29 1.292-1.29 3.115 0 0 0 1.823 1.29 3.114l2.423 2.412H33.49s-1.845 0-3.136 1.302c0 0-1.303 1.291-1.303 3.126 0 0 0 1.834 1.303 3.137 0 0 1.29 1.29 3.136 1.29h9.297l-2.423 2.424s-1.29 1.29-1.29 3.114c0 0 0 1.823 1.29 3.114 0 0 1.291 1.28 3.114 1.28 0 0 1.823 0 3.114-1.28l9.954-9.965s1.291-1.29 1.291-3.114c0 0 0-1.823-1.28-3.114" fill="url(#a)" transform="translate(11 24)"/><path d="M20.694 8.221s2.435 0 4.156 1.722c0 0 1.721 1.72 1.721 4.155 0 0 0 2.435-1.72 4.156 0 0-1.722 1.722-4.157 1.722 0 0-2.435 0-4.156-1.722 0 0-1.721-1.72-1.721-4.156 0 0 0-2.434 1.721-4.155 0 0 1.721-1.722 4.156-1.722" fill="url(#b)" transform="translate(11 24)"/><path d="M15.907 69.54s-.818.16-1.547.16c-2.151 0-3.36-1.174-3.36-3.378v-2.49c0-2.204 1.191-3.377 3.36-3.377.8 0 1.547.16 1.547.16.23.036.337.16.337.355v1.085c0 .196-.124.302-.337.284 0 0-.765-.106-1.422-.106-1.156 0-1.53.675-1.53 1.635v2.4c0 .996.41 1.654 1.547 1.654.694 0 1.423-.107 1.423-.107.195-.018.32.071.32.267v1.084c0 .196-.09.32-.338.373M19.107 69.522h-1.28a.327.327 0 0 1-.338-.338V57.237c0-.196.142-.338.338-.338h1.28c.196 0 .338.142.338.338v11.947a.327.327 0 0 1-.338.338M22.574 69.522h-1.28a.327.327 0 0 1-.338-.338V60.97c0-.195.142-.337.338-.337h1.28c.195 0 .338.142.338.337v8.214a.327.327 0 0 1-.338.338m0-10.667h-1.28a.327.327 0 0 1-.338-.338v-1.28c0-.196.142-.338.338-.338h1.28c.195 0 .338.142.338.338v1.28a.327.327 0 0 1-.338.338M29.33 69.54s-.818.16-1.547.16c-2.151 0-3.36-1.174-3.36-3.378v-2.49c0-2.204 1.19-3.377 3.36-3.377.8 0 1.546.16 1.546.16.232.036.338.16.338.355v1.085c0 .196-.124.302-.338.284 0 0-.764-.106-1.422-.106-1.155 0-1.529.675-1.529 1.635v2.4c0 .996.41 1.654 1.547 1.654.693 0 1.422-.107 1.422-.107.196-.018.32.071.32.267v1.084c0 .196-.089.32-.338.373M37.277 69.522h-1.44c-.196 0-.356-.16-.445-.338l-2.418-4.64 2.205-3.574c.106-.16.266-.337.462-.337h1.44c.196 0 .302.177.196.337l-2.205 3.538 2.435 4.676c.09.16-.035.338-.23.338m-4.747 0h-1.28a.327.327 0 0 1-.338-.338V57.237c0-.196.142-.338.338-.338h1.28c.195 0 .338.142.338.338v11.947a.327.327 0 0 1-.338.338" fill="#FF8000"/><path d="M42.557 65.806h-1.494c-.96 0-1.35.409-1.35 1.173 0 .676.39 1.067 1.173 1.067.55 0 1.155-.213 1.67-.48v-1.76zm1.617 3.716h-1.19a.327.327 0 0 1-.338-.338v-.16c-.57.355-1.316.675-2.152.675-1.724 0-2.737-.87-2.737-2.666 0-1.831 1.12-2.738 3.093-2.738.605 0 1.476.07 1.707.107v-.711c0-.925-.41-1.423-1.458-1.423-1.049 0-2.382.302-2.382.302-.214.054-.338-.088-.338-.284v-1.084c0-.196.124-.32.338-.374 0 0 1.155-.373 2.649-.373 2.364 0 3.146 1.102 3.146 3.236v5.493a.327.327 0 0 1-.338.338zM52.442 69.522h-1.28a.327.327 0 0 1-.338-.338v-5.53c0-.834-.25-1.368-1.191-1.368-.551 0-1.156.249-1.654.516v6.382a.327.327 0 0 1-.338.338h-1.28a.327.327 0 0 1-.337-.338V60.97c0-.195.142-.337.338-.337h1.19c.196 0 .339.142.339.337v.267a3.744 3.744 0 0 1 2.292-.782c1.938 0 2.596 1.173 2.596 3.022v5.707a.327.327 0 0 1-.337.338M58.735 62.517c-.48-.195-1.013-.338-1.493-.338-.978 0-1.351.623-1.351 1.512v2.755c0 .889.373 1.511 1.351 1.511.48 0 1.013-.178 1.493-.409v-5.03zm1.618 7.005h-1.191a.327.327 0 0 1-.338-.338v-.107c-.551.338-1.226.622-1.99.622-1.975 0-2.899-1.209-2.899-3.11v-3.023c0-1.902.924-3.111 2.898-3.111.729 0 1.369.213 1.902.48v-3.698c0-.196.143-.338.338-.338h1.28c.196 0 .338.142.338.338v11.947a.327.327 0 0 1-.338.338z" fill="gray"/><path d="M67.002 63.69c0-.888-.355-1.51-1.333-1.51-.48 0-1.031.177-1.511.408v5.245h1.368c1.067 0 1.476-.587 1.476-1.476v-2.666zm-1.297 5.832H62.54a.327.327 0 0 1-.338-.338V57.237c0-.196.142-.338.338-.338h1.28c.196 0 .338.142.338.338v3.769a3.743 3.743 0 0 1 1.92-.551c1.973 0 2.88 1.209 2.88 3.11v2.845c0 1.938-1.05 3.112-3.253 3.112zM76.887 69.522h-1.19a.327.327 0 0 1-.339-.338v-.267a3.743 3.743 0 0 1-2.293.782c-1.938 0-2.596-1.173-2.596-3.022V60.97c0-.195.142-.337.338-.337h1.28c.196 0 .338.142.338.337v5.53c0 .835.25 1.368 1.191 1.368.551 0 1.156-.249 1.654-.515V60.97c0-.195.142-.337.337-.337h1.28c.196 0 .338.142.338.337v8.214a.327.327 0 0 1-.338.338M81.99 72.58c-.071.177-.178.32-.373.32h-1.44c-.196 0-.338-.16-.267-.338l1.013-2.97-2.827-8.622c-.053-.177.054-.337.267-.337h1.405c.195 0 .337.124.39.32l1.814 5.635 1.902-5.636c.071-.177.196-.32.391-.32h1.405c.213 0 .338.178.266.356L81.99 72.58z" fill="#FF8000"/></g></svg>