<svg viewBox="0 0 96 96" xmlns="http://www.w3.org/2000/svg"><title>Artboard</title><g fill="none" fill-rule="evenodd"><g font-weight="bold"><text font-family="Roboto-Bold, Roboto" font-size="26" fill="#F6AC18" transform="translate(10 32)"><tspan x="0" y="26">cash</tspan></text><text font-family="ArialNarrow-Bold, Arial Narrow" font-size="28" fill="#000" transform="translate(10 32)"><tspan x="55" y="26">U</tspan></text></g><path d="M83.596 39a1.596 1.596 0 1 0 0 3.192 1.596 1.596 0 0 0 0-3.192zm0 3.046a1.45 1.45 0 1 1 0-2.901 1.45 1.45 0 0 1 0 2.901zm.614-.809v-.174a.487.487 0 0 0-.075-.28.406.406 0 0 0-.249-.155.482.482 0 0 0 .241-.17.436.436 0 0 0 .086-.265c0-.167-.053-.295-.16-.382-.106-.087-.258-.13-.457-.13h-.629v1.855h.152v-.84h.52c.132 0 .235.034.308.1.074.066.11.155.11.27v.17c0 .058.007.116.02.171a.253.253 0 0 0 .066.129h.155v-.031a.24.24 0 0 1-.067-.112.547.547 0 0 1-.02-.156zm-.633-.67h-.458v-.756h.476c.156 0 .272.033.35.099.076.065.115.16.115.282a.344.344 0 0 1-.116.273c-.077.068-.2.102-.367.102z" stroke="#000" stroke-width=".1" fill="#000" fill-rule="nonzero"/></g></svg>