<svg viewBox="0 0 96 96" xmlns="http://www.w3.org/2000/svg"><title>Artboard</title><g fill="none" fill-rule="evenodd"><path d="M73.91 52.566v1.882h6.106v-5.646H76.26V46.92h3.755v-5.653H73.91v1.884h4.221v1.886h-3.763v5.647h3.763v1.882h-4.22zm-10.853-4.703c0-5.715 4.635-10.355 10.352-10.355 5.715 0 10.351 4.64 10.351 10.355 0 5.717-4.636 10.354-10.351 10.354-5.717 0-10.352-4.637-10.352-10.354zm-1.897 0c0-6.767 5.48-12.248 12.249-12.248 6.766 0 12.25 5.48 12.25 12.248 0 6.767-5.484 12.25-12.25 12.25-6.768 0-12.249-5.483-12.249-12.25zm11.8-4.718v-1.882h-6.112v5.649h3.745v1.884h-3.745v5.648h6.113v-1.882h-4.232V50.68h3.762v-5.652H68.73v-1.883h4.232z" fill="#CB0202"/><g fill="#201E1D"><path d="M32.192 48.91v-.031h4.544c.415 0 1.012.067 1.49.381.447.295.675.731.675 1.296 0 .45-.122.801-.362 1.044-.446.448-1.215.447-1.778.447h-4.586v-.027l.017-3.11zm0-2.46v-2.762h4.16c.731 0 1.957 0 1.957 1.456 0 .533-.23.91-.682 1.124-.409.192-.918.212-1.265.212h-4.17v-.03zm4.712 8.038c1.577 0 2.767-.384 3.535-1.143.79-.78.955-1.782.955-2.488 0-1.542-.642-2.615-1.91-3.186l-.056-.023.053-.028c.572-.302 1.33-.915 1.33-2.743 0-1.004-.38-1.91-1.068-2.549-.754-.702-1.855-1.073-3.18-1.073l-6.867-.004v13.233l7.208.004zM11.615 54.488h2.616V41.255h-2.616zM16.354 47.759c0 1.28.215 2.336.658 3.229.369.743.89 1.37 1.64 1.974 1.17.937 2.817 1.413 4.895 1.413h3.58v-2.498h-3.382c-1.88 0-3.245-.47-4.053-1.397-.575-.657-.87-1.545-.877-2.638-.011-1.171.316-2.103.97-2.767.817-.83 2.15-1.25 3.96-1.25h3.382v-2.478h-3.455c-1.164 0-2.14.118-2.985.356-.843.24-1.537.597-2.118 1.09-.826.704-2.215 2.282-2.215 4.966M42.973 47.759c0 1.277.22 2.404.657 3.346a5.76 5.76 0 0 0 1.64 2.09c1.1.883 2.655 1.294 4.895 1.294h3.774V51.99h-3.575c-1.878 0-3.242-.49-4.056-1.456-.573-.68-.868-1.586-.875-2.693-.011-1.204.327-2.164 1.004-2.85.822-.837 2.142-1.261 3.927-1.261h3.575v-2.475h-3.65c-1.163 0-2.138.116-2.984.355-.844.24-1.537.595-2.117 1.089-.667.566-2.215 2.193-2.215 5.059"/></g></g></svg>