<svg viewBox="0 0 96 96" xmlns="http://www.w3.org/2000/svg"><title>Artboard</title><g fill="none" fill-rule="evenodd"><g fill="#000"><text font-family="LucidaGrande, Lucida Grande" font-size="8" transform="translate(11 48)"><tspan x="6.162" y="8.094">INTERNET</tspan> <tspan x="44.135" y="8.094" font-family="Raanana"> </tspan> <tspan x="46.271" y="8.094">BANK</tspan></text><text font-family="LucidaGrande-Bold, Lucida Grande" font-size="12" font-weight="bold" transform="translate(11 48)"><tspan x="5.075" y="24.094">TRANSFER</tspan></text></g><g transform="translate(21 20)"><ellipse fill="#000" opacity=".096" cx="27.5" cy="21.818" rx="26.4" ry="2.182"/><g fill-rule="nonzero"><path d="M54.069 16.14l.11-.11.7-.72.121-.124-.089-.14-8.932-13.794-.202-.311-.297.253-1.645 1.363C41.705 1.515 39.027.784 35.658.32a36.262 36.262 0 0 0-6.332-.288c-2.24.08-4.466.328-6.648.74-.967.192-1.937.427-2.883.703-3.311.942-6.402 2.312-9.146 4.053-2.76 1.726-5.132 3.806-7.02 6.153a25.06 25.06 0 0 0-1.52 2.04 27.542 27.542 0 0 0-1.06 1.573c-.34.447-.658.909-.948 1.372L0 16.828l.163.126 1.091.848.107.082.148-.012c1.608-.131 3.242-.293 4.82-.45 3.066-.304 6.227-.618 9.374-.725H15.937l.083-.134c.13-.21.261-.426.383-.634.1-.171.207-.347.311-.518.225-.375.475-.74.747-1.096.297-.428.594-.807.858-1.17 1.034-1.386 2.334-2.636 3.855-3.707.593.042 1.186.1 1.78.171.66.068 1.334.152 2.01.248 2.443.372 4.847.885 7.194 1.536l-1.563 1.29-.154.13.104.156.733 1.1.077.118.166.014 21.376 1.929.175.016-.003-.007z" fill="#ADE60D"/><path d="M2.249 13.86c.466-.69.972-1.363 1.515-2.017 3.768-4.672 9.411-8.228 16.041-10.108a36.82 36.82 0 0 1 2.864-.684c3.162-.6 6.417-.843 9.667-.723 1.09.044 2.175.14 3.25.284 2.856.39 5.836 1.053 8.313 2.302l1.83-1.503 8.974 13.764-22.897-2.304 3.164-2.6-.297-.09a65.643 65.643 0 0 0-8.363-1.83 38.488 38.488 0 0 0-2.525-.299 55.704 55.704 0 0 0-2.44-.151 34.717 34.717 0 0 0-2.466 0c-5.153.11-10.42 1.4-14.233 4.174-.418.301-.815.619-1.191.952-.382.336-.74.687-1.075 1.053-.433.454-.83.928-1.19 1.42.303-.563.672-1.107 1.059-1.64z" fill="#ADE60D"/><path fill="#8BB407" d="M54 15.797l-21.454-1.895-.735-1.085 22.892 2.273zM1.263 15.291l-.039.063c.139-.192.282-.381.43-.567l.133-.177.036-.043c.2-.233.401-.46.602-.684.338-.379.7-.744 1.086-1.092.38-.346.782-.676 1.204-.989 3.87-2.888 9.182-4.218 14.388-4.332a42.72 42.72 0 0 1 2.492 0 35.65 35.65 0 0 1 2.468.157c.853.08 1.703.183 2.552.31a64.825 64.825 0 0 1 8.384 1.878l.38.116-1.247 1.081a63.214 63.214 0 0 0-7.824-1.73 45.623 45.623 0 0 0-2.059-.26 31.827 31.827 0 0 0-10.515.37c-.485.104-.965.222-1.438.353a20.32 20.32 0 0 0-4.213 1.517c-1.408.634-2.664 1.466-3.708 2.457-.347.323-.674.663-.981 1.02-.775.895-1.388 1.571-1.936 2.57L.43 16.552c.301-.486.49-.802.833-1.26z"/><path d="M2.524 15.727l.115-.154.127-.163.112-.142.038-.05.048-.058a20.323 20.323 0 0 1 2.464-2.354l.23-.165a13.4 13.4 0 0 1 .883-.569c.235-.137.476-.268.725-.394.25-.127.508-.247.774-.36l.12-.057c.417-.188.84-.37 1.271-.536l.358-.136a20.51 20.51 0 0 1 2.387-.706c.465-.124.936-.235 1.412-.334A31.612 31.612 0 0 1 22 9.02c-1.58 1.078-2.93 2.344-3.998 3.75-.295.379-.59.764-.86 1.147-.278.354-.532.72-.762 1.096-.233.373-.455.754-.69 1.127-4.764.16-9.476.773-14.204 1.147.31-.535.657-1.056 1.038-1.561z" fill="#35342F"/><path d="M7.73 8.047c2.323-1.635 5.014-2.855 7.91-3.588 7.44-1.862 15.058-1.434 22.226.67 6.145 1.803 11.391 5.015 15.795 8.925l.15.253-20.325-2.212 2.21-1.958.755-.669-1.026-.317-.314-.096a62.574 62.574 0 0 0-8.52-2.009 40.38 40.38 0 0 0-2.587-.33 44.93 44.93 0 0 0-2.512-.167 35.355 35.355 0 0 0-2.54 0l-.452.013c-2.611.086-5.19.514-7.647 1.267a21.94 21.94 0 0 0-5.204 2.351 27.096 27.096 0 0 1 2.08-2.133z" fill="#ADE60D"/><path d="M2.676 16.692c1.194-.104 2.388-.23 3.56-.333 2.986-.288 6.066-.586 9.14-.703l.197-.324c.105-.168.21-.342.32-.514.239-.389.504-.768.794-1.135.298-.425.597-.806.877-1.16a18.888 18.888 0 0 1 2.95-2.985c-.577 0-1.147 0-1.71.014a29.437 29.437 0 0 0-4.911.567c-.463.096-.925.204-1.38.324-.791.185-1.565.415-2.312.689l-.347.128c-.42.163-.838.338-1.244.522l-.042.018-.075.034c-.247.106-.495.23-.737.34-.242.11-.463.241-.687.372-.143.083-.298.173-.432.264h-.018c-.138.088-.275.18-.406.271L6 13.233a19.573 19.573 0 0 0-2.367 2.248l-.039.046-.039.048-.11.138-.123.154v.016l-.113.15c-.151.202-.299.409-.442.622l-.092.037z" fill="#35342F"/><path d="M16.222 9.748c.854-.1 1.714-.163 2.578-.192.565-.018 1.14-.023 1.714-.013a18.85 18.85 0 0 0-2.956 2.966c-.284.353-.57.73-.879 1.152-.29.366-.556.743-.795 1.13-.108.17-.216.344-.32.51l-.198.322c-2.258.087-4.52.267-6.744.472 1.821-2.436 4.53-4.581 7.6-6.347z" fill="#35342F"/></g></g></g></svg>