<svg viewBox="0 0 96 96" xmlns="http://www.w3.org/2000/svg"><title>Artboard</title><g fill="none" fill-rule="evenodd"><g fill="#2E5D93"><path d="M21.15 52h-2.004l1.483-8.531h1.998L21.15 52zm8.35 0h-1.94l-2.039-5.385L24.584 52H22.58l1.477-8.531h1.957l2.033 5.385.932-5.385h2.003L29.5 52zm6-2.309c.086-.441-.152-.783-.715-1.025l-.96-.398c-1.348-.606-1.99-1.43-1.923-2.473.028-.477.192-.901.493-1.274.3-.374.716-.664 1.248-.87a4.593 4.593 0 0 1 1.74-.3c.844.016 1.522.262 2.036.739.514.476.767 1.115.759 1.916h-1.992c.011-.328-.058-.591-.208-.788-.15-.197-.398-.3-.742-.308a1.553 1.553 0 0 0-.89.235.95.95 0 0 0-.457.662c-.075.39.215.71.87.96.654.25 1.13.465 1.427.645.933.559 1.37 1.313 1.312 2.262-.031.492-.19.924-.475 1.295-.285.37-.68.658-1.186.861-.506.203-1.073.3-1.702.293a4.11 4.11 0 0 1-1.283-.217 2.824 2.824 0 0 1-1.014-.597c-.57-.528-.844-1.221-.82-2.08l2.01.005c-.024.438.06.769.251.994.192.224.514.336.967.336.336 0 .616-.077.84-.231a.96.96 0 0 0 .414-.642zm10.371-4.634h-2.484L42.186 52h-2.01l1.207-6.943h-2.444l.282-1.588h6.925l-.275 1.588zm3.99 5.35h-2.724L46.38 52h-2.21l4.518-8.531h1.887L52.152 52h-2.086l-.205-1.594zm-1.974-1.589h1.77l-.376-2.941-1.394 2.941zM53.645 52v-8.531h2.748c.753 0 1.431.17 2.033.512a3.604 3.604 0 0 1 1.409 1.448c.338.623.509 1.321.513 2.094v.393c0 .781-.165 1.481-.495 2.1a3.62 3.62 0 0 1-1.395 1.454c-.6.35-1.269.526-2.007.53h-2.806zm2.056-6.943v5.361h.715c.59 0 1.043-.21 1.36-.63.316-.42.474-1.044.474-1.872v-.37c0-.823-.158-1.444-.475-1.862-.316-.418-.777-.627-1.382-.627H55.7zm10.992 3.328H63.46v2.033h3.82V52h-5.877v-8.531h5.889v1.588h-3.832v1.798h3.234v1.53zM68.117 52v-8.531h3.065c1.097 0 1.932.2 2.505.603.572.403.858.987.858 1.752 0 .442-.102.819-.305 1.131-.203.313-.502.543-.896.691.445.118.787.336 1.025.657.238.32.358.71.358 1.172 0 .836-.265 1.463-.794 1.883-.53.42-1.314.634-2.353.642h-3.463zm2.057-3.627v2.045h1.347c.372 0 .657-.085.856-.255.2-.17.299-.41.299-.718 0-.71-.354-1.068-1.06-1.072h-1.442zm0-1.348h1.072c.45-.004.77-.086.961-.246.191-.16.287-.396.287-.709 0-.36-.103-.618-.31-.776-.207-.158-.541-.237-1.002-.237h-1.008v1.968zM78.049 52h-2.051v-8.531h2.05V52zm7.957-6.943h-2.56V52h-2.057v-6.943h-2.514v-1.588h7.13v1.588z"/></g><g fill="#FB9B15"><path d="M15.533 44L15 47.443h3.402L19 44zM14.533 49L14 52.443h3.402L18 49zM9.533 49L9 52.443h3.402L13 49z"/></g></g></svg>