<svg viewBox="0 0 96 96" xmlns="http://www.w3.org/2000/svg"><title>Artboard</title><g fill-rule="nonzero" fill="none"><path d="M23.679 47.749c-.008-.263-.135-.398-.375-.405h-1.29c-.307.015-.464.187-.472.502v2.316c.008.322.18.487.518.502h1.176c.12 0 .225-.045.308-.135a.334.334 0 0 0 .127-.27l.008-2.51zm-3.786-.33c.008-.577.135-1.02.39-1.32.128-.127.293-.232.495-.321.21-.09.405-.135.6-.135h2.36c1.042.007 1.574.577 1.59 1.708v3.486c-.008.404-.165.75-.473 1.042-.3.307-.66.464-1.08.472h-2.233v2.51h-1.649V47.42zm8.425 2.9c0 .098.045.173.135.233.075.067.18.105.3.105h1.266c.285 0 .435-.113.443-.337v-.473c0-.262-.15-.39-.458-.39h-1.259c-.165 0-.277.03-.345.083-.06.06-.09.18-.09.36l.008.42zm2.151-2.615c.008-.255-.142-.375-.442-.368h-3.328v-1.693h3.748c1.094.015 1.648.547 1.663 1.589v3.552c-.007.45-.15.817-.412 1.117-.277.307-.637.457-1.08.457h-2.263c-1.101-.007-1.663-.51-1.678-1.514v-1.371c.007-1.05.54-1.582 1.603-1.597h2.197l-.008-.172zm6.28 5.464a.51.51 0 0 0 .338-.143c.09-.082.135-.172.135-.27v-.404h-2.114c-.277 0-.494-.038-.66-.105-.171-.06-.344-.18-.524-.353a1.784 1.784 0 0 1-.36-.562 1.776 1.776 0 0 1-.112-.682v-5.006h1.656v4.474c0 .36.15.54.443.54h1.169a.51.51 0 0 0 .36-.135.355.355 0 0 0 .142-.285v-4.594h1.642v7.397c-.008.547-.15.99-.42 1.32-.278.33-.652.502-1.132.509h-3.86v-1.701h3.298zm3.411-2.511h2.946c.27-.008.412-.12.42-.322v-.15a.367.367 0 0 0-.038-.143c-.067-.127-.15-.195-.24-.195H41.78a1.622 1.622 0 0 1-1.117-.45 1.304 1.304 0 0 1-.487-.981v-1.267c.015-.99.555-1.491 1.612-1.506h3.417v1.701h-2.893c-.337 0-.51.105-.51.315v.165c0 .217.173.322.525.322h1.454c.39.007.72.157.997.45.277.292.42.637.435 1.041v1.237c-.008.345-.173.697-.48 1.042-.15.172-.307.285-.457.352-.157.06-.375.09-.652.09h-3.455l-.008-1.701zm7.877-.337c0 .097.045.172.135.232a.429.429 0 0 0 .3.105h1.274c.285 0 .435-.113.443-.337v-.473c0-.262-.15-.39-.458-.39h-1.259c-.165 0-.277.03-.345.083-.06.06-.09.18-.09.36v.42zm2.152-2.616c.007-.255-.143-.375-.45-.368H46.41v-1.693h3.748c1.094.015 1.648.547 1.663 1.589v3.552c-.007.45-.15.817-.412 1.117-.277.307-.637.457-1.079.457H48.06c-1.102-.007-1.664-.51-1.679-1.514v-1.371c.008-1.05.54-1.582 1.604-1.597h2.204v-.172zm2.983-3.028c.007-.457.18-.825.51-1.102.322-.277.741-.427 1.266-.435h1.05v1.642h-.638c-.352.007-.524.172-.532.502v.36h1.17v1.701h-1.17v5.014h-1.656v-7.682zm7.525 2.998v-.038a.266.266 0 0 0-.105-.217.492.492 0 0 0-.285-.083h-1.154c-.15 0-.27.045-.36.128a.358.358 0 0 0-.172.307v.682l2.076-.78zM58.65 50.08v.105c0 .135.038.247.105.322.053.097.12.15.218.15h3.395v1.701h-3.613c-.33 0-.584-.03-.764-.09a1.451 1.451 0 0 1-.532-.322c-.18-.18-.308-.36-.367-.555a2.445 2.445 0 0 1-.105-.78l-.015-3.402c.015-1.027.554-1.551 1.611-1.566h2.234c1.026.015 1.551.562 1.566 1.626v1.342L58.65 50.08zm7.233 2.278a3.31 3.31 0 0 1-.69-.067 1.437 1.437 0 0 1-.651-.308 1.61 1.61 0 0 1-.473-.667 2.335 2.335 0 0 1-.134-.817v-3.17a2.14 2.14 0 0 1 .074-.682c.053-.195.173-.39.353-.577.202-.195.404-.33.622-.397.21-.053.442-.083.704-.083h2.534v.397h-2.474c-.434 0-.78.09-1.034.27-.255.195-.39.532-.39 1.012v3.17c0 .225.038.443.105.653.068.202.188.39.352.547.18.135.36.225.533.254.18.038.374.06.584.06h2.361v.398h-2.376v.007zm8.86-4.115h-3.32c-.398.008-.713.135-.938.368-.232.24-.345.57-.345.989v1.012c0 .195.023.375.06.54a.817.817 0 0 0 .308.45c.285.239.607.351.952.351h2.023c.84-.007 1.267-.45 1.267-1.334l-.008-2.376zm.397 2.286c0 .255-.023.48-.053.675-.052.217-.165.42-.33.615-.344.367-.78.547-1.289.532H71.49c-.518 0-.93-.15-1.252-.458-.33-.3-.495-.719-.495-1.259v-1.019c.015-1.154.592-1.746 1.724-1.769h3.29v-.45c0-.367-.105-.69-.322-.966a.979.979 0 0 0-.472-.36 2.555 2.555 0 0 0-.615-.075h-3.59v-.397h3.403c.315 0 .592.022.847.067a.944.944 0 0 1 .36.15c.12.067.225.172.322.307a2.1 2.1 0 0 1 .45 1.357v3.05zm3.717-4.534c-.922.015-1.379.517-1.356 1.506v4.85h-.398v-4.842c-.022-1.274.585-1.911 1.822-1.911h.442v.397h-.51zm6.693 0h-3.133c-.224 0-.427.022-.607.075a1.104 1.104 0 0 0-.547.345c-.165.172-.27.344-.315.51-.06.172-.082.374-.075.614v3.095c0 .517.15.862.45 1.05.15.09.315.15.495.195.18.044.39.074.607.074h1.371c.51 0 .93-.12 1.252-.352.322-.225.487-.607.502-1.154v-4.452zm.398 4.482c-.038 1.282-.712 1.911-2.032 1.881h-1.469c-.307 0-.584-.03-.832-.075-.254-.067-.494-.217-.727-.457a1.563 1.563 0 0 1-.33-.66 2.356 2.356 0 0 1-.074-.742V47.54c.015-1.297.674-1.949 1.963-1.934h3.11V43.41h.398v7.068h-.007z" fill="#008AC9"/><path d="M10.712 45.388a1.58 1.58 0 0 1 .39-.128 2.515 2.515 0 0 1 2.458-1.993 2.51 2.51 0 0 1 2.459 1.993c.374.068.682.218.914.443.007-.218 0-.428-.023-.63a3.37 3.37 0 0 0-6.723.157 5.2 5.2 0 0 0-.007.488c.15-.128.322-.24.532-.33" fill="#E3001B"/><path d="M15.524 45.643h-4.04c-.195 0-.397.045-.6.135-.202.09-.367.194-.494.322-.248.3-.383.742-.39 1.319v3.155c.007.577.135 1.02.39 1.32.135.127.292.232.494.322.21.09.413.135.6.135h4.04c1.042-.008 1.574-.585 1.589-1.717v-3.283c-.015-1.131-.547-1.7-1.59-1.708" fill="#E3001B"/></g></svg>