<svg viewBox="0 0 96 96" xmlns="http://www.w3.org/2000/svg"><title>Artboard</title><g fill="none" fill-rule="evenodd"><g font-size="20" font-family="Times-Roman, Times" fill="#E5210B"><text transform="translate(10 26)"><tspan x="0" y="19">Perfect</tspan></text><text transform="translate(10 26)"><tspan x="0" y="35">Money</tspan></text></g><g transform="translate(70 38)" fill-rule="nonzero"><circle fill="#E33E23" cx="8" cy="8" r="8"/><path d="M2 8.108s3.555.773 4.054-.891c.49-1.632-1.134-1.97-1.134-1.97h-.714v2.737h-.764V5.336h-.677v-.28s2.565-.01 2.848.024c1.424.167 2.117 2.738-.164 3.25C3.675 8.728 2 8.108 2 8.108zm1.437.59v1.642s-.004.35-.317.35h-.39v.274h2.207v-.302h-.488s-.252-.029-.252-.287V8.682h-.755l-.005.015zm2.82 2.28H8.48v-.344h-.638s-.208-.118-.208-.357V6.143l2.477 4.829 2.423-4.737-.054 4.087s.061.337-.282.337c-.342 0-.415.01-.415.01l-.004.264H14v-.313h-.519s-.216.022-.216-.218v-4.96s.003-.108.195-.108h.45V5H12.53l-2.27 4.74-2.256-4.707H6.772v.284h.391s.136-.015.136.193c0 .208-.053 4.789-.053 4.789s.018.355-.37.355h-.618V11v-.023z" fill="#FFF"/></g><text font-family="Copperplate" font-size="7" fill="#000" transform="translate(10 26)"><tspan x="0" y="41">Just perfect</tspan></text></g></svg>