<svg viewBox="0 0 96 96" xmlns="http://www.w3.org/2000/svg"><title>Artboard</title><g fill="none" fill-rule="evenodd"><path d="M63.468 43.46a7.597 7.597 0 0 0-2.43-4.256 6.248 6.248 0 0 0-1.474-1.062 6.288 6.288 0 0 0-3.305-.808 4.711 4.711 0 0 1 2.025-.254 9.663 9.663 0 0 1 1.725.404c.462.25.92.503 1.373.759 1.114-3.32.689-7.861-.559-10.789a19.302 19.302 0 0 0-5.248-7.602 17.433 17.433 0 0 0-8.505-4.357 14.046 14.046 0 0 0-5.589.053 12.53 12.53 0 0 0-4.3 2.075c-1.138 1.01-2.248 2.051-2.997 3.444-.232.32-.436.66-.612 1.013-.154.404-.332.751-.506 1.115a15.77 15.77 0 0 0-.713 2.483c-.41 1.88-.479 3.82-.202 5.725a18.843 18.843 0 0 0 1.373 5.015c.368.71.704 1.457 1.117 2.128a20.62 20.62 0 0 0 1.325 1.873 19.016 19.016 0 0 0 3.401 2.988 18.667 18.667 0 0 0 9.655 3.19c.081-.166-.11-.497-.154-.711-.044-.214-.085-.525-.154-.76a7.447 7.447 0 0 1 0-1.723c.162.04.158.25.256.355.097.105.117.254.255.303a6.256 6.256 0 0 0 1.644 1.877 8.48 8.48 0 0 0 1.373.961c.475.305.98.56 1.506.763 1.009.53 2.361.715 3.71.913 1.349.198 2.665.404 3.912.71 1.13.328 2.217.786 3.24 1.365.493.274.968.578 1.421.913.238.143.46.312.66.504.268.105.405.36.66.457a21.02 21.02 0 0 1 2.236 2.382c.326.467.614.958.863 1.47.186.201.239.537.405.759 0 .286.291.633.048.86-.376.056-.3-.344-.457-.505a3.05 3.05 0 0 1-.357-.606c-.595-.622-1.126-1.308-1.778-1.873a13.999 13.999 0 0 0-2.024-1.57 15.354 15.354 0 0 0-4.982-2.282 18.76 18.76 0 0 0-6.443-.59c-1.02.114-2.024.334-2.997.659a28.143 28.143 0 0 1-3.098.504 25.784 25.784 0 0 1-11.89-2.228 18.698 18.698 0 0 1-4.455-2.786 14.035 14.035 0 0 1-1.9-1.801 11.767 11.767 0 0 1-1.526-2.08c-.539-.662-.863-1.554-1.316-2.317-.296-.9-.717-1.68-.915-2.685a13.442 13.442 0 0 1-.608-3.04c0-.303-.154-.893-.154-1.369 0-.04.057-.08.053-.153a4.867 4.867 0 0 1 0-1.47 15.33 15.33 0 0 1 .356-3.194c.18-.96.434-1.905.762-2.826.303-.913.7-1.728 1.065-2.584.243-.364.429-.787.66-1.163.23-.375.486-.698.66-1.114.194-.11.23-.38.405-.505.08-.226.291-.319.356-.557.166-.143.304-.315.405-.509.169-.138.307-.31.405-.505.608-.593 1.146-1.255 1.778-1.825.632-.569 1.332-1.102 1.984-1.671.405-.198.71-.509 1.118-.71.308-.283.762-.425 1.065-.711.847-.372 1.568-.868 2.49-1.167.859-.38 1.742-.699 2.645-.953a21.582 21.582 0 0 1 6.35-.771c.09 0 .134-.085.154 0 3.86.065 7.62 1.244 10.822 3.395a19.16 19.16 0 0 1 6.605 7.546 19.867 19.867 0 0 1 1.676 11.802 23.825 23.825 0 0 1-1.676 5.419 24.236 24.236 0 0 1-1.272 2.28 6.762 6.762 0 0 1-.713 1.063 2.14 2.14 0 0 1-.356.505 2.52 2.52 0 0 1-.203.254c-.024.044-.044.089-.1.1.02.098-.03.11-.03.057z" fill="#F78F20"/><path d="M61.798 44c-.466-.202-.545-.83-.757-1.31a1.172 1.172 0 0 1 0-.614c.032 0 .038-.045.079-.045.117-.084.228.021.396.087.233.32.397.694.479 1.094.01.345.031.708-.197.788zM57.268 44.037c0-.064.064-.032.064 0 1.092.128 1.6.81 1.668 1.893-.06.532-.487.966-1.053 1.07-1.476.023-2.313-1.24-1.791-2.524.295-.22.507-.508 1.112-.439z" fill="#F78F20"/><path d="M33.68 77.38c.147.544.435 1.045.84 1.455.366.413.814.754 1.318 1.003a6.457 6.457 0 0 0 1.633.707c.304.122.623.207.95.252.251.132.562.2.579.552 0 .42-.31.575-.684.651a6.588 6.588 0 0 1-1.16-.2 10.213 10.213 0 0 1-5.375-2.558c-.184-.291-.42-.52-.63-.799-.21-.28-.327-.623-.529-.903a6.659 6.659 0 0 1-3.582-1.655 7.088 7.088 0 0 1-1.843-3.56 9.969 9.969 0 0 1 .16-4.613c.86-2.69 2.683-4.468 6.114-4.712a8.373 8.373 0 0 1 2.52.4c.765.284 1.464.71 2.057 1.25a.46.46 0 0 1 .105.1c.117.172.42.4.58.6.033.04 0 .108.05.152s.16.124.21.2c.05.076.02.104.054.148l.16.251c.025.04.088.072.105.1.092.164.13.368.21.552.08.184.197.364.264.551.209.637.35 1.292.42 1.955a8.544 8.544 0 0 1-1 5.163 5.653 5.653 0 0 1-1.473 1.755c-.615.5-1.308.906-2.054 1.203zm-2.52-12.637a4.222 4.222 0 0 0-1.105.351c-.28.19-.532.413-.751.664-.303.164-.387.531-.63.751a8.416 8.416 0 0 0-.53 1.647 10.932 10.932 0 0 0-.21 1.998c0 1.727.374 3.441 1.105 4.464.428.506.969.916 1.583 1.2.366.035.655.143 1.054.151.219-.076.597 0 .74-.152.323.024.42-.184.684-.2.15-.148.33-.268.529-.351.189-.204.374-.4.58-.6.105-.148.163-.348.315-.451.915-1.667 1.02-4.728.42-6.67a5.733 5.733 0 0 0-.895-1.755 5.072 5.072 0 0 0-1.369-.956 4.57 4.57 0 0 0-1.369-.147c-.034 0-.063 0-.055.048l-.096.008zM42.243 64.011a26.747 26.747 0 0 1 2.62.052c.12.252.157.53.11.801.061 3.688 0 7.636 0 11.404v.905c.045.255.007.517-.11.752a7.41 7.41 0 0 1-1.423.049c-.46.056-.927.022-1.371-.1a341.832 341.832 0 0 1 0-13.714.267.267 0 0 1 .174-.149zM48.179 64.007h2.442c.207.356.331.75.365 1.158.733 2.71 1.461 5.423 2.128 8.197.157 0 .107-.164.157-.252s.033-.237.104-.3c.029-.225.17-.342.157-.602.186-.34.24-.802.414-1.159.215-.801.489-1.575.729-2.365.24-.79.542-1.555.728-2.405.344-.69.414-1.631.828-2.264h1.04c.372.677.509 1.603.827 2.312.207.802.506 1.556.725 2.365.513 1.564 1.043 3.115 1.507 4.726.207-.3.207-.801.364-1.158.074-.393.178-.78.31-1.158.415-1.604.78-3.207 1.243-4.726.147-.785.355-1.558.62-2.313a9.102 9.102 0 0 1 2.133 0 4.59 4.59 0 0 1-.414 1.76c-.095.645-.344 1.142-.468 1.76-.368 1.133-.658 2.348-1.039 3.47-.294 1.203-.687 2.321-.985 3.52-.2.561-.348 1.17-.518 1.76-.17.589-.269 1.202-.571 1.66h-1.45c-.368-.63-.5-1.492-.827-2.161-.725-2.225-1.516-4.358-2.236-6.594-.248.248-.24.737-.414 1.054a10.89 10.89 0 0 1-.364 1.106c-.195.766-.501 1.427-.675 2.213a21.753 21.753 0 0 0-.725 2.217c-.306.657-.414 1.507-.778 2.112a8.452 8.452 0 0 1-1.453.048c-.364-.4-.414-1.122-.625-1.66-.211-.537-.298-1.202-.518-1.711-.277-1.223-.7-2.305-.99-3.52-.376-1.126-.695-2.308-1.038-3.47-.187-.558-.336-1.151-.518-1.708-.083-.606-.51-1.15-.364-1.812a.377.377 0 0 1 .149-.1zM67.297 64.011a25.718 25.718 0 0 1 2.569.052c.13.544.165 1.104.107 1.659v10.555a4.955 4.955 0 0 1-.107 1.659c-.711.064-1.427.08-2.141.048-.205 0-.454.048-.59-.1a4.933 4.933 0 0 1-.108-1.659V65.77a5.019 5.019 0 0 1 .107-1.659c.045-.045.1-.08.163-.1zM53.011 83.276c.295.132.565.324.795.564.194.393.245.851.142 1.283-.414.948-1.866 1.022-2.948.715v-4.667a3.001 3.001 0 0 1 1.31-.155c.303.034.602.103.892.204.429.289.622.862.466 1.386-.168.282-.32.564-.657.67zm0-.72c.12-.98-.608-1.148-1.358-1.025v1.635c.694.07 1.157-.131 1.358-.61zm.236 2.412c.238-1.054-.62-1.561-1.545-1.332-.056.614-.07 1.23-.045 1.847.686.053 1.317.008 1.59-.515zM42.657 81.01c.053.663.068 1.328.044 1.993.03.096.194-.092.183-.21.081-.066.184-.108.184-.262a1.34 1.34 0 0 0 .367-.527c.309-.275.463-.726.783-.993.169 0 .407-.046.507.054a5.656 5.656 0 0 1-.695 1.098c-.213.368-.503.652-.69 1.048.239.493.58.877.83 1.362.327.411.606.869.83 1.361-.165.109-.5.03-.735.055-.279-.38-.51-.836-.782-1.203a5.91 5.91 0 0 1-.735-1.253c-.054.802-.07 1.606-.047 2.41-.136.104-.434.029-.643.054a53.469 53.469 0 0 1 0-4.978l.599-.008zM49.369 82.439c.076-.033 0-.063 0 0-.917 1.148-1.736 2.4-2.67 3.561h-.633a47.227 47.227 0 0 1 0-4.976h.582v3.757c.047.142.127-.109.161-.159a2.23 2.23 0 0 0 .211-.263c.11-.188.262-.334.372-.521.27-.334.518-.684.743-1.048.313-.284.473-.718.794-.998a1.32 1.32 0 0 1 .372-.522c0-.305.36-.275.689-.263-.034 1.64.071 3.423-.051 4.976h-.515c-.123-1.068-.021-2.37-.055-3.544zM56.648 81.067v3.46c.05.142.13-.108.16-.158.11 0 .106-.143.16-.21.148-.116.199-.33.372-.417.19-.33.403-.645.637-.945.455-.577.865-1.204 1.32-1.784h.637c.088 1.659.088 3.322 0 4.981h-.531c-.123-1.153 0-2.532-.055-3.761-.046-.1-.03.058-.105.05-.076-.008-.047.092-.106.105 0 .133-.097.183-.16.263-.118.18-.24.36-.372.526-.236.36-.523.67-.738 1.05a6.932 6.932 0 0 0-.742 1.02c-.368.23-.321.869-1.06.735a47.387 47.387 0 0 1 0-4.982c.195.03.469-.033.583.067z" fill="#0769B3"/></g></svg>