<svg viewBox="0 0 96 96" xmlns="http://www.w3.org/2000/svg"><title>Artboard</title><g fill="none" fill-rule="evenodd"><path d="M70.436 31.554l6.327-1.134v24.324h-6.327v-23.19zM86 54.742h-6.331V31.554L86 30.42v24.322zm-30.573 0H49.05V44.73c0-5.225 2.97-7.852 8.815-8.042 0 0 1.053-.04 1.677.092v5.2c-3.705.128-4.116 1.469-4.116 4.595v8.167zm-18.33 0h-6.53v-23.03l6.53-1.292v12.704c2.45-2.97 3.463-5.838 3.604-6.193h7.465c-.213.682-1.545 4.792-4.583 8.65 0 0 3.385 5.942 4.16 9.163h-7.82s-.936-4.28-2.827-7.118v7.116zm24.38-22.618A3.118 3.118 0 0 1 64.59 29a3.12 3.12 0 0 1 3.119 3.124 3.118 3.118 0 0 1-3.119 3.122 3.119 3.119 0 0 1-3.114-3.122zm6.28 22.618h-6.325V36.95h6.325v17.79zm-38.78-7.58c0 3.902-3.123 7.838-10.096 7.838-3.232 0-5.988-.316-8.435-.963v-5.68c1.632.668 4.325 1.379 7.098 1.379 2.528 0 4.035-.841 4.035-2.266 0-1.725-1.84-1.83-2.532-1.873C10.878 45.04 10 40.201 10 38.147c0-3.565 2.528-7.727 9.659-7.727 4.133 0 6.365.647 8.286 1.32l.1.03v5.516l-.07-.02a33.774 33.774 0 0 0-1.682-.649c-1.625-.489-3.901-1.008-5.658-1.008-1 0-3.664 0-3.664 2.014 0 1.67 1.848 1.79 2.647 1.843 5.865.395 9.359 3.272 9.359 7.697z" fill="#852265" fill-rule="nonzero"/><text font-family="Verdana-Bold, Verdana" font-size="9" font-weight="bold" fill="#000" transform="translate(10 29)"><tspan x="1" y="36">moneybookers</tspan></text></g></svg>