<svg viewBox="0 0 96 96" xmlns="http://www.w3.org/2000/svg"><title>Artboard</title><g fill="none" fill-rule="evenodd"><path d="M83.596 39a1.596 1.596 0 1 0 0 3.192 1.596 1.596 0 0 0 0-3.192zm0 3.046a1.45 1.45 0 1 1 0-2.901 1.45 1.45 0 0 1 0 2.901zm.614-.809v-.174a.487.487 0 0 0-.075-.28.406.406 0 0 0-.249-.155.482.482 0 0 0 .241-.17.436.436 0 0 0 .086-.265c0-.167-.053-.295-.16-.382-.106-.087-.258-.13-.457-.13h-.629v1.855h.152v-.84h.52c.132 0 .235.034.308.1.074.066.11.155.11.27v.17c0 .058.007.116.02.171a.253.253 0 0 0 .066.129h.155v-.031a.24.24 0 0 1-.067-.112.547.547 0 0 1-.02-.156zm-.633-.67h-.458v-.756h.476c.156 0 .272.033.35.099.076.065.115.16.115.282a.344.344 0 0 1-.116.273c-.077.068-.2.102-.367.102z" stroke="#000" stroke-width=".1" fill="#000" fill-rule="nonzero"/><path d="M36.717 45.429c.305 5.234-1.44 9.695-4.989 13.444-2.012 2.123-4.434 3.59-7.272 4.272-.726.174-1.48.23-2.219.338a.375.375 0 0 0-.11.034h-1.185c-.256-.034-.513-.062-.77-.096-2.027-.24-3.869-.967-5.48-2.245-2.664-2.116-4.049-4.972-4.545-8.32-.061-.41-.1-.823-.147-1.235V49.84c.012-.038.03-.073.035-.112.06-.533.084-1.073.177-1.6.768-4.44 2.832-8.124 6.284-10.972 1.956-1.614 4.173-2.69 6.672-3.12.44-.076.886-.126 1.33-.186h1.468c.437.062.876.107 1.307.189 3.574.684 6.197 2.697 7.923 5.927a13.112 13.112 0 0 1 1.521 5.463zm-5.077-4.28a1.547 1.547 0 0 0-.441-.062c-.924.002-1.847.016-2.77.014-.208 0-.293.075-.335.276-.537 2.635-1.071 5.272-1.621 7.905-.21 1.001-.417 2.01-.843 2.947-.33.721-.806 1.302-1.558 1.596a3.86 3.86 0 0 1-2.235.168c-.956-.196-1.675-.877-1.554-2.088.012-.125.01-.259.035-.383.17-.856.338-1.713.52-2.564.483-2.256.973-4.508 1.453-6.763.146-.686-.185-1.089-.876-1.092-.459-.004-.915 0-1.374-.002-.482 0-.964.005-1.444-.002-.196-.003-.275.075-.315.267-.496 2.343-1.006 4.68-1.497 7.024-.303 1.446-.68 2.884-.683 4.384-.002.738.126 1.438.485 2.08.601 1.079 1.539 1.747 2.66 2.162 2 .73 4.04.706 6.087.248 1.589-.353 2.852-1.208 3.699-2.648a9.063 9.063 0 0 0 1.011-2.583c.379-1.653.724-3.316 1.072-4.976a631.06 631.06 0 0 0 1.038-5.06c.079-.424-.107-.727-.514-.848zm1.925-2.598c-1.444-2.32-3.89-3.427-5.38-3.755-.517-.157-1.143-.246-1.721-.294a11.112 11.112 0 0 0-4.504.54c-3.033 1.017-5.43 2.914-7.31 5.51-.399.553-.746 1.142-1.117 1.716.02.016.044.032.065.046.049-.073.1-.144.147-.217 1.535-2.379 3.534-4.239 6.061-5.479 2.585-1.268 5.29-1.7 8.121-1.063.519.116 3.202 1.056 5.638 2.996z" fill-rule="nonzero" fill="#A71514"/><text font-family="Roboto-BoldItalic, Roboto" font-size="20" font-style="italic" font-weight="bold" fill="#000" transform="translate(10 33)"><tspan x="30" y="22">kash</tspan></text></g></svg>