<svg viewBox="0 0 96 96" xmlns="http://www.w3.org/2000/svg" xmlns:xlink="http://www.w3.org/1999/xlink"><title>Artboard</title><defs><path id="a" d="M.022 25.452V.122h74.616v25.33H.022z"/></defs><g fill="none" fill-rule="evenodd"><path d="M74.903 55.645c-.104.843-.24 1.653-.41 2.43-.71-.235-1.53-.612-2.688-.533-.69.047-1.508.316-1.52.948-.011.7 1.123 1.116 1.754 1.423 1.138.552 2.36 1.288 2.455 2.786a3.553 3.553 0 0 1-1.052 2.727c-1.593 1.527-5.127 1.688-7.54.711.151-.816.288-1.645.41-2.49.934.403 2.217.947 3.624.771.64-.08 1.425-.46 1.402-1.126-.028-.814-1.525-1.298-2.28-1.72-.876-.49-1.873-1.304-1.928-2.548a3.285 3.285 0 0 1 .702-2.134c1.245-1.57 4.445-2.128 7.07-1.245M46.26 39.77h3.223l-1.984 12.682h-3.222l1.984-12.683M37.924 42.29l-.498 3.183h.932c.906 0 1.763-.716 1.905-1.592.142-.874-.483-1.59-1.388-1.59h-.95zm-2.828-2.522h4.934c3.139 0 3.954 1.834 3.611 4.024-.286 1.829-1.581 3.05-3.263 3.483l3.125 5.177h-4.046l-2.343-4.98-.78 4.98h-3.222l1.984-12.684zM60.976 39.77h3.222l-1.984 12.682h-3.222l1.984-12.683M66.646 39.768h7.075l-.432 2.758h-3.852l-.339 2.168h3.662l-.431 2.757h-3.662l-.351 2.243h3.852l-.431 2.758h-7.075l1.984-12.684M26.106 39.768h7.074l-.431 2.758h-3.852l-.339 2.168h3.662l-.431 2.757h-3.662l-.351 2.243h3.852l-.431 2.758h-7.075l1.984-12.684" fill="#344E90"/><g transform="translate(11 27)"><mask id="b" fill="#fff"><use xlink:href="#a"/></mask><path fill="#344E90" mask="url(#b)" d="M40.923 12.768h7.154l-.431 2.758h-3.932l-.344 2.168h3.577l-.433 2.757h-3.576l-.782 5h-3.217l1.984-12.683M67.408 15.526h.665c2.463 0 3.426 1.762 3.16 3.462-.357 2.281-1.973 3.706-4.085 3.706h-.862l1.122-7.168zm-2.791-2.758h4.199c5.003 0 6.143 3.839 5.751 6.345-.56 3.581-3.708 6.339-7.735 6.339h-4.199l1.984-12.684zM0 11.04h5.96l.709 9.215C10.613 13.33 14.62 6.667 18.659.122h1.944C16.328 8.484 12.108 16.9 8.02 25.452H3.644L2.578 15.29C2.313 12.768 1.81 11.698 0 11.427v-.386"/></g><path fill="#EB902D" d="M13.257 32.801l5.082 2.185.442 5.741h.376l4.613-7.922v-.398H13.256v.394"/><path d="M34.15 55.434h2.086l-.703 4.999c.596-.584 1.324-.944 2.138-.944 1.674 0 2.77 1.635 2.475 3.654-.296 2.018-1.873 3.656-3.546 3.656-.825 0-1.417-.378-1.82-1.012l-.11.793h-2.087l1.567-11.146zm2.603 6.102c.77 0 1.294.716 1.17 1.6-.125.882-.85 1.598-1.621 1.598-.77 0-1.295-.716-1.17-1.599s.851-1.599 1.621-1.599z" fill="#344E90"/><path fill="#344E90" d="M40.325 59.66h2.503l1.119 3.542 2.174-3.543h2.418L42.192 70h-2.418l2.676-4.36-2.125-5.98M60.975 66.577l1.833-11.146h2.999l-1.833 11.146h-2.999M58.468 55.408c-1.034 2.468-1.915 5.091-2.98 7.528l-.313-1.462c0-.005-.003-.012-.004-.018l.052.26c-.231-.769-.624-1.495-1.127-2.16l-.04-.052a8.899 8.899 0 0 0-.276-.336 9.996 9.996 0 0 0-.176-.203 10.963 10.963 0 0 0-2.535-2.052l2.666 9.64h3.214c1.513-3.762 3.146-7.4 4.675-11.145h-3.156"/><path d="M52.808 55.41h-4.903v.242c2.823.558 6.386 2.96 7.318 6.064l-1.052-5.19c-.144-.8-.693-1.117-1.363-1.117" fill="#EB902D"/><path d="M80.462 58.495l-1.527 4.145h2.47l-.943-4.145zm4.55 8.116h-2.746c-.178-.531-.227-1.192-.41-1.719h-3.739l-.701 1.72H74.26l4.09-9.544c.181-.42.506-.99.643-1.246.208-.385 1.012-.414 1.354-.414h2.27l2.396 11.203z" fill="#344E90"/></g></svg>