<svg width="96" height="96" viewBox="0 0 96 96" xmlns="http://www.w3.org/2000/svg" xmlns:xlink="http://www.w3.org/1999/xlink"><title>Artboard 2</title><defs><path d="M3 0h37.754a3 3 0 0 1 2.12.878l16.247 16.243A3 3 0 0 1 60 19.243V78a3 3 0 0 1-3 3H3a3 3 0 0 1-3-3V3a3 3 0 0 1 3-3z" id="a"/><circle id="c" cx="12" cy="12" r="12"/><path id="d" d="M6 15h12v21l-6-6-6 6z"/></defs><g fill="none" fill-rule="evenodd"><g transform="translate(18)"><mask id="b" fill="#fff"><use xlink:href="#a"/></mask><use fill="#FFF" xlink:href="#a"/><path stroke="#FFF" stroke-width="3" d="M3 1.5A1.5 1.5 0 0 0 1.5 3v75A1.5 1.5 0 0 0 3 79.5h54a1.5 1.5 0 0 0 1.5-1.5V19.243a1.5 1.5 0 0 0-.44-1.06L41.815 1.938a1.5 1.5 0 0 0-1.06-.439H3z"/><rect fill="#DEDEDE" mask="url(#b)" x="9" y="24" width="42" height="3" rx="1.5"/><rect fill="#DEDEDE" mask="url(#b)" x="9" y="15" width="27" height="3" rx="1.5"/><rect fill="#DEDEDE" mask="url(#b)" x="9" y="33" width="42" height="3" rx="1.5"/><rect fill="#DEDEDE" mask="url(#b)" x="9" y="42" width="42" height="3" rx="1.5"/><rect fill="#DEDEDE" mask="url(#b)" x="9" y="51" width="42" height="3" rx="1.5"/><path d="M42 0l18 18H45a3 3 0 0 1-3-3V0z" fill="#DEDEDE" mask="url(#b)"/></g><g transform="translate(36 60)"><use fill="#E98024" xlink:href="#c"/><circle stroke="#E98024" stroke-width="3" cx="12" cy="12" r="10.5"/><use fill="#E98024" xlink:href="#d"/><path stroke="#E98024" stroke-width="3" d="M7.5 16.5v15.879l4.5-4.5 4.5 4.5V16.5h-9z"/><circle fill="#FFF" cx="12" cy="12" r="6"/></g></g></svg>