<svg width="96" height="96" viewBox="0 0 96 96" xmlns="http://www.w3.org/2000/svg"><title>Artboard 2</title><g fill="none" fill-rule="evenodd"><g transform="translate(0 60)"><path d="M88.763 15.618l-32.64 17.133c-2.363 1.181-5.17 1.477-7.828.59l-18.757-6.35h-6.35V6.46h7.827c2.068 0 3.988.444 5.908 1.33l10.634 5.021H61.44c1.477 0 2.658 1.33 2.658 2.806 0 1.477-1.181 2.807-2.806 2.807H44.898c-1.476.295-4.283 1.624-4.283 4.578h2.216c0-1.625 2.067-2.215 2.51-2.363h16.247c.886 0 1.624-.295 2.215-.59l22.745-10.044a3.262 3.262 0 0 1 2.363 0c.738.296 1.329.886 1.624 1.625.591 1.477-.147 3.249-1.772 3.987z" fill="#FFF"/><path fill="#DEDEDE" d="M0 3h24v30H0z"/><circle fill="#C2C2C2" cx="18" cy="27" r="3"/><circle fill="#C2C2C2" cx="9" cy="27" r="3"/></g><path d="M52.005 39.874c-6.167-2.24-13.033.938-15.274 7.12-2.24 6.183.954 13.034 7.12 15.275 6.168 2.24 13.034-.938 15.275-7.12 2.24-6.183-.954-13.034-7.12-15.275z" fill="#E98024" fill-rule="nonzero"/><path d="M51.068 56.086c-.382.27-.827.445-1.288.525-.46.095-.938.095-1.446.031a6.88 6.88 0 0 1-1.081-.222l-.715 1.987-1.145-.414.716-1.986-1.16-.43-.716 1.987-1.144-.413.715-1.987-2.48-.906.43-1.192.365.096c.127.047.302.08.54.143.303.08.414.063.446.08.127 0 .174-.033.174-.033a.421.421 0 0 0 .096-.175l2.384-6.564c.032-.095.032-.159.032-.222 0-.016-.032-.064-.112-.143-.11-.112-.254-.191-.381-.286-.175-.096-.318-.16-.413-.223l-.35-.159.43-1.192 2.415.874.715-1.955 1.145.414-.684 1.986 1.16.43.716-1.987 1.144.413-.731 2.003c.238.095.461.222.668.333.365.223.683.477.985.78.286.301.493.65.62 1.048.127.413.111.858-.048 1.303-.143.382-.35.7-.636.954-.27.239-.604.413-.97.525a4.798 4.798 0 0 1-.746.143c.27.222.508.445.715.699.286.334.493.715.62 1.16.127.445.095.938-.08 1.43-.206.462-.492.859-.905 1.145z" fill="#FFF"/><path d="M49.32 53.893a1.75 1.75 0 0 1-2.242 1.049l-1.669-.604 1.192-3.29 1.67.604a1.764 1.764 0 0 1 1.048 2.24zM50.336 49.363c-.27.763-1.112 1.144-1.875.874l-1.367-.493 1.001-2.765 1.367.493c.747.286 1.145 1.144.874 1.89z" fill="#E98024" fill-rule="nonzero"/><g transform="translate(36 3)"><circle fill="#E98024" cx="12" cy="12" r="12"/><path d="M13.148 10.779c-1.72-.574-2.427-.976-2.427-1.567 0-.592.42-1.045 1.726-1.045 1.007-.002 2 .218 2.897.643l.626-2.083a7.817 7.817 0 0 0-2.934-.602V4.5H11.04v1.722C8.894 6.59 7.656 7.858 7.656 9.5c0 1.791 1.457 2.71 3.61 3.375 1.508.46 2.15.902 2.15 1.602 0 .7-.781 1.148-1.95 1.148a7.617 7.617 0 0 1-3.34-.792L7.5 16.986a9.001 9.001 0 0 0 3.415.792V19.5h1.982v-1.866c2.352-.35 3.603-1.75 3.603-3.375s-.963-2.704-3.352-3.48z" fill="#FFF" fill-rule="nonzero"/></g><g transform="translate(63 21)"><circle fill="#E98024" cx="12" cy="12" r="12"/><path d="M13.364 6.003c-1.17-.04-2.318.364-3.254 1.144-.854.748-1.449 1.802-1.682 2.981H7.75l-.25 1.43h.73V12.63h-.523L7.5 14.082h.974c.242 1.141.835 2.153 1.677 2.861a4.92 4.92 0 0 0 3.224 1.053 7.262 7.262 0 0 0 3.125-.721V14.7h-.271c-.664.67-1.511 1.073-2.406 1.144a3.387 3.387 0 0 1-.411 0h-.126l-.25-.051-.14-.052-.208-.074-.136-.074a1.382 1.382 0 0 1-.177-.103l-.129-.098-.156-.131-.12-.12-.14-.16-.11-.144-.125-.188-.094-.166c-.052-.103-.109-.212-.156-.327h2.833l.22-1.218.04-.235H11v-1.07h3.645l.26-1.453H11.26c.049-.14.104-.275.167-.407.053-.112.112-.22.177-.326v-.04c.063-.098.13-.191.203-.28l.026-.029c.073-.088.151-.17.234-.246a2.137 2.137 0 0 1 .542-.355h.046c.097-.04.196-.075.297-.103h.057c.106-.027.214-.048.322-.063h.047c.123-.007.247-.007.37 0h.349l.177.036.11.029.16.046.115.045a5.119 5.119 0 0 1 1.5.956h.271V6.729a7.223 7.223 0 0 0-3.067-.726z" fill="#FFF" fill-rule="nonzero"/></g><g transform="translate(9 21)"><circle fill="#E98024" cx="12" cy="12" r="12"/><g fill-rule="nonzero" fill="#FFF"><path d="M11.845 14.85v-4.587L7.51 12.225zM11.845 9.947V4.562L7.65 11.846zM12.124 4.56v5.387l4.255 1.926zM12.124 10.263v4.586l4.338-2.623zM11.845 19.461v-3.69l-4.306-2.604zM12.124 19.461l4.306-6.294-4.306 2.605z"/></g></g></g></svg>