<svg width="96" height="96" viewBox="0 0 96 96" xmlns="http://www.w3.org/2000/svg"><title>Artboard 2</title><g fill="none" fill-rule="evenodd"><path stroke="#DEDEDE" stroke-width="3" stroke-linecap="round" stroke-linejoin="round" d="M31.487 88.5l18.013-18 18 18"/><rect fill="#FFF" x="6" y="12" width="84" height="60" rx="3"/><rect fill="#DEDEDE" x="3" y="12" width="90" height="6" rx="3"/><rect fill="#DEDEDE" x="3" y="66" width="90" height="6" rx="3"/><g stroke-linecap="round" stroke-width="3" stroke="#DEDEDE" stroke-linejoin="round"><path d="M25.5 55.5l15-15 9 9 21-21"/><path d="M61.5 28.5h9v9"/></g><circle fill="#E98024" cx="84" cy="18" r="12"/><path d="M83.535 22.745l-3.032 1.593a1 1 0 0 1-1.45-1.054l.578-3.375a1 1 0 0 0-.287-.885l-2.453-2.39a1 1 0 0 1 .555-1.707l3.389-.492a1 1 0 0 0 .753-.547l1.515-3.071a1 1 0 0 1 1.794 0l1.515 3.071a1 1 0 0 0 .753.547l3.39.492a1 1 0 0 1 .554 1.706l-2.453 2.39a1 1 0 0 0-.287.886l.579 3.375a1 1 0 0 1-1.451 1.054l-3.032-1.593a1 1 0 0 0-.93 0z" fill="#FFF"/></g></svg>